<svg width="556" height="438" viewBox="0 0 556 438" fill="none" xmlns="http://www.w3.org/2000/svg">
<path d="M352.796 223.384C352.796 239.838 340.093 252.299 323.638 252.299C307.183 252.299 294.561 239.838 294.561 223.384C294.561 206.929 307.183 194.469 323.638 194.469C340.093 194.469 352.796 206.929 352.796 223.384ZM306.063 223.384C306.063 233.848 313.573 241.436 323.638 241.436C333.703 241.436 341.212 233.848 341.212 223.384C341.212 212.92 333.703 205.332 323.638 205.332C313.573 205.332 306.063 212.92 306.063 223.384Z" fill="#111827"/>
<path d="M325.334 46.6393C242.238 46.6393 172.879 105.43 156.579 183.681H170.867C177.399 154.866 191.92 128.414 213.328 107.009C243.246 77.0951 283.024 60.6208 325.334 60.6208C367.644 60.6208 407.423 77.0951 437.341 107.009C467.259 136.923 483.735 176.696 483.735 219C483.735 261.304 467.259 301.077 437.341 330.991C407.423 360.905 367.644 377.379 325.334 377.379C283.024 377.379 243.246 360.905 213.328 330.991C209.583 327.247 206.054 323.346 202.739 319.307H185.135C216.413 362.935 267.553 391.359 325.334 391.359C420.54 391.359 497.719 314.191 497.719 218.998C497.719 123.806 420.54 46.6377 325.334 46.6377V46.6393Z" fill="#111827"/>
<path d="M413.377 133.761L337.158 204.356L346.027 213.928L422.245 143.334L413.377 133.761Z" fill="#111827"/>
<path d="M220.083 123.646L211.596 133.558L304.847 213.388L313.334 203.476L220.083 123.646Z" fill="#111827"/>
<path d="M240.025 287L242.833 270.8H203.413L205.033 261.62L240.349 211.4H251.149L215.833 261.62H244.453L247.909 242.18H257.629L254.173 261.62H265.513L263.893 270.8H252.553L249.745 287H240.025Z" fill="#111827"/>
<path d="M159.756 289.16C153.996 289.16 148.812 287.756 144.204 284.948C139.596 282.14 135.96 278.18 133.296 273.068C130.704 267.956 129.408 262.052 129.408 255.356C129.408 246.356 131.244 238.364 134.916 231.38C138.66 224.324 143.484 218.888 149.388 215.072C155.364 211.184 161.556 209.24 167.964 209.24C173.724 209.24 178.908 210.644 183.516 213.452C188.124 216.26 191.724 220.22 194.316 225.332C196.98 230.444 198.312 236.348 198.312 243.044C198.312 252.044 196.44 260.072 192.696 267.128C189.024 274.112 184.2 279.548 178.224 283.436C172.32 287.252 166.164 289.16 159.756 289.16ZM160.62 279.98C166.092 279.98 170.952 278.324 175.2 275.012C179.448 271.7 182.724 267.236 185.028 261.62C187.404 255.932 188.592 249.704 188.592 242.936C188.592 237.824 187.656 233.432 185.784 229.76C183.984 226.016 181.464 223.208 178.224 221.336C174.984 219.392 171.276 218.42 167.1 218.42C161.628 218.42 156.768 220.076 152.52 223.388C148.272 226.7 144.96 231.2 142.584 236.888C140.28 242.504 139.128 248.696 139.128 255.464C139.128 260.576 140.028 265.004 141.828 268.748C143.7 272.42 146.256 275.228 149.496 277.172C152.736 279.044 156.444 279.98 160.62 279.98Z" fill="#111827"/>
<path d="M96.904 287L99.712 270.8H60.292L61.912 261.62L97.228 211.4H108.028L72.712 261.62H101.332L104.788 242.18H114.508L111.052 261.62H122.392L120.772 270.8H109.432L106.624 287H96.904Z" fill="#111827"/>
</svg>
