<svg xmlns="http://www.w3.org/2000/svg" width="15" height="15" viewBox="0 0 15 15" fill="none">
<path d="M8.7777 3.91668C9.34747 4.02784 9.8711 4.30649 10.2816 4.71697C10.6921 5.12745 10.9707 5.65108 11.0819 6.22084M8.7777 1.58334C9.96145 1.71485 11.0653 2.24495 11.908 3.0866C12.7507 3.92825 13.2822 5.03143 13.4152 6.21501M12.8319 10.87V12.62C12.8325 12.7825 12.7993 12.9433 12.7342 13.0921C12.6691 13.241 12.5736 13.3746 12.4539 13.4844C12.3342 13.5943 12.1929 13.6779 12.039 13.7299C11.8851 13.782 11.722 13.8013 11.5602 13.7867C9.76519 13.5916 8.04095 12.9783 6.52604 11.9958C5.1166 11.1002 3.92165 9.90528 3.02604 8.49584C2.04019 6.97405 1.42668 5.24142 1.2352 3.43834C1.22063 3.27703 1.2398 3.11445 1.2915 2.96096C1.34319 2.80746 1.42629 2.66641 1.53548 2.54679C1.64468 2.42717 1.77759 2.33159 1.92575 2.26615C2.07391 2.20071 2.23407 2.16683 2.39604 2.16668H4.14604C4.42913 2.16389 4.70358 2.26414 4.91823 2.44874C5.13288 2.63334 5.27308 2.88969 5.3127 3.17001C5.38657 3.73005 5.52355 4.27993 5.72104 4.80918C5.79952 5.01797 5.81651 5.24488 5.76998 5.46302C5.72346 5.68117 5.61537 5.88141 5.45854 6.04001L4.7177 6.78084C5.54811 8.24124 6.7573 9.45044 8.2177 10.2808L8.95854 9.54001C9.11714 9.38317 9.31738 9.27509 9.53552 9.22856C9.75367 9.18204 9.98058 9.19903 10.1894 9.27751C10.7186 9.475 11.2685 9.61198 11.8285 9.68584C12.1119 9.72582 12.3707 9.86855 12.5557 10.0869C12.7407 10.3052 12.839 10.5839 12.8319 10.87Z" stroke="#4B5563" stroke-width="1.5" stroke-linecap="round" stroke-linejoin="round"/>
</svg>