<svg width="405" height="365" viewBox="0 0 405 365" fill="none" xmlns="http://www.w3.org/2000/svg">
<path d="M342 274.311C342 295.622 324.576 313 303.192 313H73.4577C67.1216 313 62 307.898 62 301.627C62 295.303 67.1216 290.201 73.4577 290.201H303.192C312.009 290.201 319.137 283.08 319.137 274.311C319.137 265.596 312.009 258.475 303.192 258.475H292.104L298.387 243.063C301.872 243.807 305.462 244.179 309.158 244.179C314.491 244.179 319.56 243.382 324.418 242C334.978 248.909 342 260.813 342 274.311Z" fill="#B1BEC6" fill-opacity="0.75"/>
<path d="M302.038 313H72.6528C65.6938 313 60 307.356 60 300.499C60 293.59 65.6938 287.999 72.6528 287.999H302.038C310.157 287.999 316.747 281.458 316.747 273.388C316.747 265.371 310.157 258.83 302.038 258.83H289.174L296.45 241.002L297.451 241.213C300.878 241.899 304.463 242.268 308.048 242.268C313.109 242.268 318.118 241.53 322.915 240.158L323.443 240L323.917 240.316C335.252 247.648 342 260.043 342 273.388C342 295.225 324.075 313 302.038 313ZM72.6528 290.372C67.0118 290.372 62.4251 294.908 62.4251 300.447C62.4251 306.038 67.0118 310.574 72.6528 310.574H302.038C322.757 310.574 339.575 293.906 339.575 273.388C339.575 261.046 333.407 249.547 323.021 242.637C318.17 243.956 313.109 244.642 308.048 244.642C304.621 244.642 301.247 244.378 297.979 243.745L292.759 256.457H302.038C311.528 256.457 319.172 264.052 319.172 273.388C319.172 282.777 311.528 290.372 302.038 290.372H72.6528Z" fill="#75808E"/>
<path d="M341.702 134.196L337.377 144.679C328.938 139.226 318.863 136.102 307.998 136.102C278.091 136.102 253.775 160.245 253.775 190C253.775 216.102 272.447 237.862 297.237 242.839L290.591 259.04C287.901 265.659 281.414 270 274.24 270H97.224C89.4704 270 82.6134 264.97 80.3453 257.611L41.7879 132.713C38.3066 121.436 46.7987 110 58.6666 110H325.351C329.518 110 333.263 111.43 336.217 113.706C342.072 118.312 344.814 126.466 341.702 134.196Z" fill="#B1BEC6" fill-opacity="0.5"/>
<path d="M274.885 271H97.5555C89.2068 271 81.915 265.665 79.4843 257.742L40.8585 133.192C39.062 127.434 40.1188 121.413 43.7119 116.553C47.3578 111.747 52.8531 109 58.9297 109H326.087C330.367 109 334.383 110.321 337.712 112.909C344.423 118.138 346.8 126.906 343.577 134.724L338.716 146.555L337.501 145.763C328.94 140.322 318.954 137.417 308.756 137.417C279.43 137.417 255.599 160.975 255.599 189.974C255.599 214.905 273.512 236.614 298.135 241.526L299.562 241.79L292.375 259.327C289.469 266.405 282.6 271 274.885 271ZM58.9297 111.377C53.6457 111.377 48.8373 113.807 45.6669 117.979C42.5494 122.205 41.6511 127.487 43.1835 132.452L81.8093 257.055C83.9229 263.975 90.2636 268.57 97.5555 268.57H274.885C281.596 268.57 287.62 264.609 290.156 258.429L290.526 257.531L296.233 243.586C271.187 237.882 253.168 215.591 253.168 189.974C253.168 159.655 278.109 134.988 308.756 134.988C318.954 134.988 328.888 137.734 337.553 142.963L341.358 133.826C344.158 127.012 342.098 119.353 336.232 114.81C333.326 112.592 329.839 111.377 326.087 111.377H58.9297Z" fill="#75808E"/>
<mask id="mask0_606_7048" style="mask-type:luminance" maskUnits="userSpaceOnUse" x="101" y="313" width="54" height="52">
<path d="M101 313H155V365H101V313Z" fill="white"/>
</mask>
<g mask="url(#mask0_606_7048)">
<path d="M127.473 364C140.485 364 151 353.72 151 341.026C151 328.333 140.485 318 127.473 318C114.515 318 104 328.333 104 341.026C104 353.72 114.515 364 127.473 364Z" fill="#B1BEC6" fill-opacity="0.75"/>
</g>
<path d="M126.974 353C120.404 353 115 347.589 115 341C115 334.357 120.404 329 126.974 329C133.596 329 139 334.357 139 341C139 347.589 133.596 353 126.974 353Z" fill="#75808E"/>
<mask id="mask1_606_7048" style="mask-type:luminance" maskUnits="userSpaceOnUse" x="223" y="313" width="68" height="52">
<path d="M223 313H291V365H223V313Z" fill="white"/>
</mask>
<g mask="url(#mask1_606_7048)">
<path d="M254.473 364C267.485 364 278 353.72 278 341.026C278 328.333 267.485 318 254.473 318C241.515 318 231 328.333 231 341.026C231 353.72 241.515 364 254.473 364Z" fill="#B1BEC6" fill-opacity="0.75"/>
</g>
<mask id="mask2_606_7048" style="mask-type:luminance" maskUnits="userSpaceOnUse" x="101" y="313" width="54" height="52">
<path d="M101 313H155V365H101V313Z" fill="white"/>
</mask>
<g mask="url(#mask2_606_7048)">
<path d="M127.474 365C114 365 103 354.235 103 341.026C103 327.765 114 317 127.474 317C141 317 152 327.765 152 341.026C152 354.235 141 365 127.474 365ZM127.474 319.392C115.316 319.392 105.421 329.065 105.421 340.974C105.421 352.883 115.316 362.608 127.474 362.608C139.684 362.608 149.579 352.883 149.579 340.974C149.579 329.065 139.684 319.392 127.474 319.392Z" fill="#75808E"/>
</g>
<mask id="mask3_606_7048" style="mask-type:luminance" maskUnits="userSpaceOnUse" x="223" y="340" width="68" height="25">
<path d="M223 340H291V365H223V340Z" fill="white"/>
</mask>
<g mask="url(#mask3_606_7048)">
<path d="M254.474 365C241 365 230 354.223 230 341H232.421C232.421 352.922 242.316 362.605 254.474 362.605C266.684 362.605 276.579 352.922 276.579 341H279C279 354.223 268 365 254.474 365Z" fill="#75808E"/>
</g>
<path d="M253.974 353C247.404 353 242 347.589 242 341C242 334.357 247.404 329 253.974 329C260.596 329 266 334.357 266 341C266 347.589 260.596 353 253.974 353Z" fill="#75808E"/>
<path d="M204 125H56V127H204V125Z" fill="#75808E"/>
<path d="M242 138H181V140H242V138Z" fill="#75808E"/>
<path d="M271 253H93V255H271V253Z" fill="#75808E"/>
<path d="M363 94.4981H356.829C351.608 94.4981 346.755 97.2841 344.171 101.805L337.156 114C334.203 111.74 330.458 110.373 326.291 110.373H313L324.34 90.6608C330.985 79.1489 343.432 72 356.882 72H362.578C360.785 75.2065 359.73 78.9387 359.73 82.8811C359.73 87.1389 360.943 91.1339 363 94.4981Z" fill="#75808E"/>
<mask id="mask4_606_7048" style="mask-type:luminance" maskUnits="userSpaceOnUse" x="358" y="56" width="47" height="54">
<path d="M358 56H405V110H358V56Z" fill="white"/>
</mask>
<g mask="url(#mask4_606_7048)">
<path d="M405 83C405 95.7063 394.695 106 382 106C373.661 106 366.33 101.55 362.293 94.8485C360.222 91.4172 359 87.3427 359 83C359 78.979 360.062 75.1725 361.868 71.9021C365.799 64.8252 373.342 60 382 60C394.695 60 405 70.2937 405 83Z" fill="#B1BEC6" fill-opacity="0.5"/>
<path d="M382 107C373.632 107 365.737 102.535 361.421 95.3588C359.211 91.6379 358 87.3322 358 82.9734C358 78.9336 359.053 74.8937 361 71.3322C365.263 63.7309 373.316 59 382 59C395.263 59 406 69.7375 406 82.9734C406 96.2093 395.263 107 382 107ZM382 61.392C374.158 61.392 366.947 65.6445 363.158 72.5548C361.368 75.691 360.421 79.3057 360.421 82.9734C360.421 86.907 361.526 90.7342 363.526 94.0831C367.474 100.674 374.368 104.555 382 104.555C393.895 104.555 403.579 94.8804 403.579 82.9734C403.579 71.0664 393.895 61.392 382 61.392Z" fill="#75808E"/>
</g>
<path d="M337.989 144.589C329.51 139.128 319.389 136 308.474 136C278.428 136 254 160.177 254 189.973C254 216.112 272.758 237.903 297.664 242.887C301.161 243.629 304.764 244 308.474 244C313.825 244 318.913 243.205 323.788 241.826C346.414 235.252 363 214.521 363 189.973C363 170.94 353.038 154.186 337.989 144.589ZM329.669 195.487C329.669 203.599 327.815 209.909 324.158 214.309C320.449 218.71 315.256 220.937 308.579 220.937C301.85 220.937 296.551 218.71 292.895 214.256C289.185 209.803 287.331 203.546 287.331 195.487V184.459C287.331 176.348 289.185 170.091 292.842 165.691C296.551 161.237 301.744 159.063 308.474 159.063C315.203 159.063 320.449 161.29 324.105 165.691C327.815 170.144 329.669 176.401 329.669 184.513V195.487Z" fill="#75808E"/>
<path d="M307.948 170C305.545 170 303.821 170.946 302.724 172.943C301.679 174.888 301.104 177.884 301 181.879V197.122C301 201.59 301.575 204.849 302.672 206.899C303.821 208.949 305.597 210 308.052 210C310.455 210 312.127 209.001 313.276 206.951C314.373 204.954 314.948 201.8 315 197.543V182.773C315 178.463 314.425 175.256 313.328 173.154C312.179 171.051 310.403 170 307.948 170Z" fill="#75808E"/>
<path d="M212.674 85.6533C213.674 82.6707 214.779 80.4337 216.042 78.8891C217.252 77.3978 218.884 76.2793 220.778 75.5337C222.725 74.788 224.251 73.9891 225.409 73.1902C226.514 72.3913 227.303 71.3793 227.724 70.101C228.724 67.0118 227.935 65.0412 225.304 64.189C224.093 63.7629 222.936 63.8695 221.883 64.5086C220.831 65.1477 220.041 66.2662 219.463 67.7575L209.149 64.2955C210.569 60.2477 212.885 57.4781 216.2 56.04C219.463 54.602 223.409 54.6552 227.935 56.1998C232.513 57.7444 235.67 59.9814 237.459 62.9107C239.249 65.8401 239.459 69.2488 238.196 73.1369C237.617 74.788 236.775 76.2261 235.618 77.3978C234.513 78.5695 232.934 79.6348 230.987 80.5935L226.409 82.6707C225.041 83.3098 224.041 84.0555 223.304 84.9076C222.62 85.8131 221.936 87.0381 221.41 88.5294L212.674 85.6V85.6533ZM208.307 94.4947C208.833 93.0034 209.78 91.9381 211.201 91.3523C212.622 90.7664 214.095 90.7131 215.726 91.2457C217.358 91.8316 218.568 92.7371 219.357 94.0686C220.094 95.4001 220.252 96.8382 219.726 98.3295C219.199 99.8741 218.252 100.939 216.831 101.525C215.463 102.111 213.937 102.164 212.306 101.632C210.675 101.046 209.464 100.14 208.728 98.8088C207.938 97.4773 207.78 96.0393 208.307 94.4947Z" fill="#75808E"/>
<path d="M171.982 79.6291C171.982 75.6394 172.456 72.4897 173.349 70.1799C174.243 67.8701 175.714 65.8752 177.764 64.1429C179.814 62.463 181.391 60.9406 182.442 59.5232C183.493 58.1058 184.019 56.531 184.019 54.8511C184.019 50.7564 182.232 48.6566 178.658 48.6566C176.976 48.6566 175.662 49.2866 174.611 50.494C173.612 51.6489 173.086 53.2762 173.034 55.3236H159C159.053 49.864 160.787 45.6119 164.256 42.5671C167.673 39.5224 172.456 38 178.658 38C184.807 38 189.59 39.4174 192.954 42.2522C196.318 45.0344 198 49.0766 198 54.2212C198 56.531 197.58 58.5783 196.633 60.4157C195.74 62.3055 194.268 64.1954 192.271 66.1377L187.488 70.4948C186.174 71.8072 185.228 73.1196 184.702 74.4845C184.177 75.7969 183.861 77.5293 183.809 79.5766H171.982V79.6291ZM170.301 92.0706C170.301 90.0232 171.036 88.3959 172.508 87.0835C173.98 85.7711 175.819 85.1411 178.027 85.1411C180.235 85.1411 182.074 85.7711 183.546 87.0835C185.018 88.3959 185.753 90.0232 185.753 92.0706C185.753 94.0654 185.018 95.7453 183.546 97.0577C182.074 98.3176 180.235 99 178.027 99C175.819 99 173.98 98.3176 172.508 97.0577C171.036 95.7453 170.301 94.0654 170.301 92.0706Z" fill="#75808E"/>
<path d="M101.362 229C98.8684 229 96.5827 227.301 95.9074 224.753L79.1804 160.193C78.4012 157.113 80.2193 153.981 83.2323 153.185C86.2452 152.388 89.3101 154.246 90.0893 157.273L106.816 221.886C107.596 224.912 105.829 228.044 102.764 228.841C102.297 228.947 101.829 229 101.362 229Z" fill="#75808E"/>
<path d="M136.194 229C133.414 229 130.954 227.088 130.472 224.273L119.082 159.683C118.547 156.549 120.686 153.628 123.841 153.097C126.997 152.513 129.991 154.637 130.526 157.718L141.916 222.36C142.451 225.441 140.366 228.416 137.157 228.947C136.836 229 136.515 229 136.194 229Z" fill="#75808E"/>
<path d="M164.475 229C161.433 229 159 226.451 159 223.317V158.736C159 155.549 161.433 153 164.475 153C167.516 153 170 155.549 170 158.736V223.317C170 226.451 167.516 229 164.475 229Z" fill="#75808E"/>
<mask id="mask5_606_7048" style="mask-type:luminance" maskUnits="userSpaceOnUse" x="0" y="0" width="398" height="353">
<path d="M0 0H398V353H0V0Z" fill="white"/>
</mask>
<g mask="url(#mask5_606_7048)">
<mask id="mask6_606_7048" style="mask-type:luminance" maskUnits="userSpaceOnUse" x="-405" y="-424" width="1215" height="1216">
<path d="M810 -424H-405V792H810V-424Z" fill="black" fill-opacity="0.25"/>
</mask>
<g mask="url(#mask6_606_7048)">
<mask id="mask7_606_7048" style="mask-type:luminance" maskUnits="userSpaceOnUse" x="-7" y="-12" width="405" height="365">
<path d="M398 -12H-7V353H398V-12Z" fill="white"/>
</mask>
<g mask="url(#mask7_606_7048)">
<path d="M308.946 243C305.19 243 301.541 242.667 298 242C301.541 242.667 305.19 243 309 243H308.946Z" fill="#75808E"/>
<mask id="mask8_606_7048" style="mask-type:luminance" maskUnits="userSpaceOnUse" x="0" y="0" width="396" height="123">
<path d="M0 0H396V123H0V0Z" fill="white"/>
</mask>
<g mask="url(#mask8_606_7048)">
<path d="M34.4419 68.2686H67.7761C77.3227 68.2686 85.92 72.1199 92.1438 78.2925C98.3676 84.4652 102.218 92.9592 102.218 102.403C102.218 105.041 101.954 107.573 101.374 110H290.039C289.459 107.573 289.195 105.041 289.195 102.403C289.195 83.5683 304.597 68.2686 323.637 68.2686H360.558C361.877 68.2686 363.195 68.2158 364.461 68.0575C368.628 63.0456 374.957 59.8273 382.025 59.8273C382.394 59.8273 382.816 59.8801 383.185 59.8801C390.411 53.6019 395 44.4221 395 34.1343C395 24.7434 391.15 16.1966 384.926 10.024C378.702 3.85132 370.052 0 360.558 0H34.4419C15.4013 0 0 15.2998 0 34.1343C0 43.5779 3.85032 52.1247 10.0741 58.2974C16.2979 64.47 24.9479 68.2686 34.4419 68.2686ZM183.602 97.2853C182.125 98.5515 180.279 99.2374 178.064 99.2374C175.849 99.2374 174.003 98.5515 172.526 97.2853C171.049 95.9664 170.31 94.2782 170.31 92.2734C170.31 90.2158 171.049 88.5803 172.526 87.2614C174.003 85.9424 175.849 85.3093 178.064 85.3093C180.279 85.3093 182.125 85.9424 183.602 87.2614C185.079 88.5803 185.817 90.2158 185.817 92.2734C185.817 94.2782 185.079 95.9664 183.602 97.2853ZM216.567 55.976C219.837 54.6043 223.793 54.6043 228.329 56.1343C232.918 57.6643 236.082 59.8801 237.876 62.7818C239.669 65.6834 239.88 69.0599 238.614 72.9113C238.034 74.5995 237.19 75.9712 236.03 77.1319C234.922 78.2925 233.34 79.3477 231.388 80.2974L226.799 82.3549C225.428 82.988 224.426 83.7266 223.687 84.6235C223.002 85.4676 222.316 86.681 221.789 88.211L213.033 85.3093C214.035 82.3549 215.143 80.1391 216.409 78.6091C217.622 77.1319 219.257 76.024 221.156 75.2854C223.107 74.5468 224.637 73.7554 225.744 72.964C226.905 72.1727 227.696 71.1703 228.118 69.9041C229.12 66.8441 228.329 64.8921 225.692 64.048C224.479 63.6259 223.318 63.7314 222.263 64.3645C221.208 64.9976 220.417 66.1055 219.837 67.5827L209.499 64.1535C210.923 60.1439 213.244 57.4005 216.567 55.976ZM208.655 94.0671C209.183 92.5899 210.132 91.5348 211.556 90.9544C212.98 90.3741 214.457 90.3213 216.092 90.8489C217.727 91.4293 218.94 92.3261 219.732 93.6451C220.47 94.964 220.628 96.3885 220.101 97.8657C219.573 99.3957 218.624 100.451 217.2 101.031C215.776 101.612 214.299 101.664 212.664 101.137C211.029 100.556 209.816 99.6595 209.025 98.3405C208.286 97.0216 208.128 95.5971 208.655 94.0671ZM164.245 42.5228C167.673 39.4628 172.473 37.9328 178.697 37.9328C184.868 37.9328 189.668 39.3573 193.043 42.2062C196.419 45.0024 198.107 49.0647 198.107 54.235C198.107 56.5564 197.685 58.6139 196.735 60.4604C195.839 62.3597 194.362 64.259 192.357 66.211L187.558 70.5899C186.239 71.9089 185.29 73.2278 184.762 74.5995C184.235 75.9184 183.918 77.6595 183.866 79.7698H171.998C171.998 75.7602 172.473 72.5947 173.37 70.2734C174.266 67.952 175.743 65.9472 177.8 64.2062C179.857 62.518 181.439 60.988 182.494 59.5635C183.549 58.1391 184.077 56.5564 184.077 54.8681C184.077 50.753 182.283 48.6427 178.697 48.6427C177.009 48.6427 175.69 49.2758 174.635 50.4892C173.633 51.6499 173.106 53.2854 173.053 55.3429H158.97C159.023 49.8561 160.764 45.5827 164.245 42.5228Z" fill="#75808E"/>
</g>
<path d="M323.533 214.359C327.16 209.949 329 203.627 329 195.499V184.501C329 176.373 327.16 170.104 323.481 165.641C319.854 161.231 314.65 159 307.974 159C301.298 159 296.146 161.178 292.467 165.641C288.84 170.051 287 176.32 287 184.448V195.499C287 203.574 288.84 209.843 292.519 214.306C296.146 218.769 301.35 221 308.079 221C314.755 221 319.854 218.769 323.533 214.359ZM302.665 207.081C301.561 205.009 300.982 201.715 300.982 197.199V181.792C301.088 177.754 301.666 174.726 302.717 172.76C303.821 170.741 305.556 169.785 307.974 169.785C310.392 169.785 312.232 170.847 313.388 172.973C314.492 175.098 315.07 178.338 315.07 182.695V197.624C315.018 201.927 314.439 205.115 313.335 207.187C312.179 209.206 310.444 210.215 308.079 210.215C305.713 210.215 303.821 209.153 302.665 207.081Z" fill="#75808E"/>
<mask id="mask9_606_7048" style="mask-type:luminance" maskUnits="userSpaceOnUse" x="331" y="123" width="65" height="95">
<path d="M331 123H396V218H331V123Z" fill="white"/>
</mask>
<g mask="url(#mask9_606_7048)">
<path d="M360.695 136H341.31L338 144.105C352.92 153.757 362.796 170.607 362.796 189.75C362.796 195.029 362.008 200.148 360.642 205H360.695C379.66 205 395 189.536 395 170.5C395 160.955 391.165 152.37 384.966 146.131C378.767 139.839 370.151 136 360.695 136Z" fill="#75808E"/>
</g>
<mask id="mask10_606_7048" style="mask-type:luminance" maskUnits="userSpaceOnUse" x="0" y="123" width="74" height="95">
<path d="M0 123H74V218H0V123Z" fill="white"/>
</mask>
<g mask="url(#mask10_606_7048)">
<path d="M34.1438 205H64L43.0327 136H34.1438C15.268 136 0 151.464 0 170.5C0 180.045 3.817 188.63 9.98693 194.869C16.1569 201.107 24.732 205 34.1438 205Z" fill="#75808E"/>
</g>
<mask id="mask11_606_7048" style="mask-type:luminance" maskUnits="userSpaceOnUse" x="0" y="245" width="396" height="97">
<path d="M0 245H396V342H0V245Z" fill="white"/>
</mask>
<g mask="url(#mask11_606_7048)">
<path d="M360.558 273.281H354.809C349.904 273.281 345.262 272.287 341.043 270.455C341.148 271.502 341.201 272.549 341.201 273.595C341.201 294.581 323.848 311.694 302.434 311.694H72.945C66.6157 311.694 61.4995 306.67 61.4995 300.494C61.4995 294.267 66.6157 289.243 72.945 289.243H302.434C311.242 289.243 318.363 282.23 318.363 273.595C318.363 265.013 311.242 258 302.434 258H291.358L290.989 258.89C288.299 265.379 281.811 269.67 274.638 269.67H162.715C158.074 271.973 152.799 273.281 147.261 273.281H34.4419C15.4013 273.281 0 288.405 0 307.141C0 316.456 3.85032 324.934 10.0741 331.057C16.2979 337.18 24.9479 341 34.4419 341H103.958C103.958 340.686 103.958 340.372 103.958 340.058C103.958 327.393 114.402 317.084 127.271 317.084C140.194 317.084 150.637 327.393 150.637 340.058C150.637 340.372 150.584 340.686 150.584 341H230.861C230.861 340.686 230.861 340.372 230.861 340.058C230.861 327.393 241.304 317.084 254.173 317.084C267.096 317.084 277.539 327.393 277.539 340.058C277.539 340.372 277.486 340.686 277.486 341H360.558C379.599 341 395 325.823 395 307.141C395 297.773 391.15 289.295 384.926 283.172C378.702 277.049 370.052 273.281 360.558 273.281Z" fill="#75808E"/>
</g>
</g>
</g>
</g>
</svg>
