<svg width="556" height="438" viewBox="0 0 556 438" fill="none" xmlns="http://www.w3.org/2000/svg">
<path d="M183.321 277.979L176.694 304.184H170.068L167.672 294.712L165.801 284.305H165.09L163.218 294.712L160.822 304.184H154.195L147.568 277.979H153.072L156.217 290.52L157.565 298.344L158.913 290.52L162.057 277.979H168.834L171.941 290.52L173.327 298.419L174.675 290.52L177.82 277.979H183.324H183.321Z" fill="#111827"/>
<path d="M228.03 298.007H217.434L215.187 304.185H209.534L219.343 277.981H226.12L235.929 304.185H230.238L228.03 298.007ZM226.158 292.917L222.714 283.408L219.269 292.917H226.158Z" fill="#111827"/>
<path d="M281.799 283.07H274.236V304.184H268.882V283.07H261.355V277.979H281.799V283.07Z" fill="#111827"/>
<path d="M311.044 291.081C311.044 283.37 316.773 277.529 324.598 277.529C330.851 277.529 335.718 281.384 337.253 286.963H331.524C330.289 284.268 327.779 282.621 324.56 282.621C319.731 282.621 316.435 286.178 316.435 291.081C316.435 295.984 319.731 299.541 324.56 299.541C327.779 299.541 330.289 297.893 331.524 295.198H337.253C335.718 300.776 330.851 304.631 324.598 304.631C316.773 304.631 311.044 298.792 311.044 291.079V291.081Z" fill="#111827"/>
<path d="M390.461 277.979V304.184H385.106V293.327H373.462V304.184H368.107V277.979H373.462V288.236H385.106V277.979H390.461Z" fill="#111827"/>
<path d="M505.656 160.027H512.978V161.467H510.096V168.845H508.539V161.467H505.656V160.027ZM524.422 160.027V168.846H522.894V162.073L519.637 166.541H519.55L516.263 162.073V168.846H514.707V160.027H516.493L519.577 164.234L522.661 160.027H524.42H524.422Z" fill="#111827"/>
<path d="M56.3508 241.183C55.3518 241.348 54.3116 241.436 53.2364 241.436C48.2717 241.436 44.0654 239.674 41.0454 236.671C37.7909 233.458 35.904 228.805 35.904 223.384C35.904 219.9 36.6853 216.734 38.1077 214.067C40.7286 209.115 45.5517 205.855 51.6967 205.396C52.2024 205.349 52.7125 205.332 53.2364 205.332C60.1109 205.332 65.4625 208.845 68.0941 214.597H80.3201C77.0413 202.695 66.661 194.471 53.3171 194.471C52.6943 194.471 52.0836 194.489 51.479 194.524C46.2036 194.818 41.42 196.374 37.3965 198.919C29.4118 203.953 24.4014 212.853 24.4014 223.386C24.4014 236.632 32.3206 247.288 44.1187 250.942C46.9742 251.824 50.0642 252.299 53.3187 252.299C55.2634 252.299 57.1442 252.122 58.9535 251.787C69.5409 249.82 77.5195 242.342 80.3216 232.173H68.0956C65.8752 237.026 61.7206 240.28 56.3508 241.185V241.183Z" fill="#111827"/>
<path d="M156.287 195.428V251.339H144.863V228.176H120.018V251.339H108.595V195.428H120.018V217.314H144.863V195.428H156.287Z" fill="#111827"/>
<path d="M187.598 195.428H199.021V251.339H187.598V195.428Z" fill="#111827"/>
<path d="M270.036 206.291H253.9V251.341H242.476V206.291H226.42V195.428H270.036V206.291Z" fill="#111827"/>
<path d="M352.796 223.384C352.796 239.838 340.093 252.299 323.638 252.299C307.183 252.299 294.561 239.838 294.561 223.384C294.561 206.929 307.183 194.469 323.638 194.469C340.093 194.469 352.796 206.929 352.796 223.384ZM306.063 223.384C306.063 233.848 313.573 241.436 323.638 241.436C333.703 241.436 341.212 233.848 341.212 223.384C341.212 212.92 333.703 205.332 323.638 205.332C313.573 205.332 306.063 212.92 306.063 223.384Z" fill="#111827"/>
<path d="M451.688 195.428L437.549 251.339H423.409L418.297 231.131L414.303 208.927H412.785L408.792 231.131L403.68 251.339H389.539L375.4 195.428H387.144L393.854 222.185L396.729 238.879L399.606 222.185L406.316 195.428H420.776L427.407 222.185L430.363 239.039L433.238 222.185L439.948 195.428H451.691H451.688Z" fill="#111827"/>
<path d="M531.597 195.578V251.489H518.416L494.132 212.35L495.171 211.642L483.747 195.578H496.847L521.213 234.716L520.174 218.98V195.578H531.597Z" fill="#111827"/>
<path d="M325.334 46.6392C242.238 46.6392 172.879 105.43 156.579 183.681H170.867C177.399 154.866 191.92 128.414 213.328 107.009C243.246 77.0951 283.024 60.6208 325.334 60.6208C367.644 60.6208 407.423 77.0951 437.341 107.009C467.259 136.923 483.735 176.696 483.735 219C483.735 261.304 467.259 301.077 437.341 330.991C407.423 360.905 367.644 377.379 325.334 377.379C283.024 377.379 243.246 360.905 213.328 330.991C209.583 327.247 206.054 323.346 202.739 319.307H185.135C216.413 362.935 267.553 391.359 325.334 391.359C420.54 391.359 497.719 314.191 497.719 218.998C497.719 123.806 420.54 46.6377 325.334 46.6377V46.6392Z" fill="#111827"/>
<path d="M413.377 133.761L337.158 204.356L346.027 213.928L422.245 143.334L413.377 133.761Z" fill="#111827"/>
<path d="M220.083 123.646L211.596 133.558L304.847 213.388L313.334 203.477L220.083 123.646Z" fill="#111827"/>
</svg>
