<svg width="356" height="324" viewBox="0 0 356 324" fill="none" xmlns="http://www.w3.org/2000/svg">
<mask id="mask0_606_6860" style="mask-type:luminance" maskUnits="userSpaceOnUse" x="0" y="0" width="356" height="324">
<path d="M0 0H356V324H0V0Z" fill="white"/>
</mask>
<g mask="url(#mask0_606_6860)">
<mask id="mask1_606_6860" style="mask-type:luminance" maskUnits="userSpaceOnUse" x="-211" y="-226" width="777" height="778">
<path d="M566 -226H-211V552H566V-226Z" fill="black" fill-opacity="0.25"/>
</mask>
<g mask="url(#mask1_606_6860)">
<mask id="mask2_606_6860" style="mask-type:luminance" maskUnits="userSpaceOnUse" x="1" y="-6" width="363" height="337">
<path d="M364 -6H1V331H364V-6Z" fill="white"/>
</mask>
<g mask="url(#mask2_606_6860)">
<path d="M164.394 121C164.462 120.837 164.564 120.674 164.632 120.543H121C121.17 120.412 121.34 120.282 121.475 120.184C125.142 117.279 128.097 113.852 130.1 110H172C169.08 113.395 166.533 117.083 164.394 121Z" fill="#75808E"/>
<mask id="mask3_606_6860" style="mask-type:luminance" maskUnits="userSpaceOnUse" x="1" y="124" width="357" height="200">
<path d="M1 124H358V324H1V124Z" fill="white"/>
</mask>
<g mask="url(#mask3_606_6860)">
<path d="M328.042 260.072C326.114 264.532 321.651 267.641 316.477 267.641H289.461L283.509 270.817C279.215 273.081 273.974 271.662 271.438 267.641H96.5224C89.5568 267.641 83.9438 262.099 83.9438 255.207V211.822C83.9438 204.963 89.5568 199.388 96.5224 199.388H177.708C174.09 196.043 170.81 192.259 168.037 188.17C168.105 188.272 168.173 188.373 168.24 188.508H40.5953C33.6298 188.508 28.0168 182.933 28.0168 176.074V132.689C28.0168 132.115 28.0506 131.541 28.1182 131C22.2009 132.588 16.8584 135.325 12.5641 138.873C5.39572 144.752 1 152.861 1 161.815C1 179.723 18.6505 194.252 40.46 194.252H43.1313C49.1162 194.252 54.7968 195.367 59.9026 197.327H69.5056C70.8581 197.327 71.9401 198.408 71.9401 199.726V204.524C78.5337 210.302 82.5913 218.107 82.5913 226.689C82.5913 235.271 78.1956 243.752 71.0272 249.631C63.8926 255.477 54.0191 259.126 43.1313 259.126H40.46C29.5722 259.126 19.6987 262.775 12.5641 268.621C5.39572 274.5 1 282.609 1 291.563C1 309.471 18.6505 324 40.46 324H318.54C329.428 324 339.301 320.385 346.436 314.505C353.604 308.626 358 300.517 358 291.563C358 276.358 345.252 263.586 328.042 260.072ZM175.104 288.86C175.104 290.178 174.022 291.259 172.704 291.259H94.3583C93.0396 291.259 91.9576 290.178 91.9576 288.86V278.656C91.9576 277.338 93.0396 276.257 94.3583 276.257H172.704C174.022 276.257 175.104 277.338 175.104 278.656V288.86Z" fill="#75808E"/>
</g>
<mask id="mask4_606_6860" style="mask-type:luminance" maskUnits="userSpaceOnUse" x="269" y="115" width="89" height="86">
<path d="M269 115H358V201H269V115Z" fill="white"/>
</mask>
<g mask="url(#mask4_606_6860)">
<path d="M318.377 128.88H308.089C298.82 128.88 290.297 126.308 283.541 122C287.819 130.583 290.196 140.234 290.196 150.42C290.196 166.45 284.288 181.144 274.407 192.532C274.272 192.699 274.136 192.833 274 193H318.377C329.31 193 339.224 189.427 346.388 183.616C353.586 177.805 358 169.79 358 160.94C358 143.24 340.243 128.88 318.377 128.88ZM325.303 184.083C325.303 185.386 324.217 186.421 322.859 186.421H301.706C300.348 186.421 299.261 185.386 299.261 184.083V173.964C299.261 172.662 300.348 171.627 301.706 171.627H322.859C324.217 171.627 325.303 172.662 325.303 173.964V184.083Z" fill="#75808E"/>
</g>
<mask id="mask5_606_6860" style="mask-type:luminance" maskUnits="userSpaceOnUse" x="1" y="0" width="357" height="72">
<path d="M1 0H358V72H1V0Z" fill="white"/>
</mask>
<g mask="url(#mask5_606_6860)">
<path d="M1 32.5C1 23.5286 5.39572 15.4036 12.5641 9.51302C19.6987 3.65625 29.5722 0 40.46 0H318.54C340.316 0 358 14.5573 358 32.5C358 41.4714 353.604 49.5964 346.436 55.487C339.301 61.3776 329.428 65 318.54 65H309.106V53.9974C309.106 47.125 303.459 41.5391 296.528 41.5391H76.5726C69.6408 41.5391 63.994 47.125 63.994 53.9974V65H40.46C18.6505 65 1 50.4427 1 32.5Z" fill="#75808E"/>
</g>
<path d="M326 95.7119C326 107.475 316.286 117 304.315 117C297.816 117 291.968 114.186 288 109.746H296.448C303.46 109.746 309.172 104.153 309.172 97.2712V75C318.817 77.1356 326 85.6102 326 95.7119Z" fill="#75808E"/>
<path d="M71 225.814C71 237.52 61.3767 247 49.5169 247C37.6233 247 28 237.52 28 225.814C28 215.424 35.5902 206.788 45.6202 205V210.06C45.6202 211.376 46.7045 212.455 48.026 212.455H66.1545C69.1702 216.099 71 220.754 71 225.814Z" fill="#75808E"/>
</g>
</g>
</g>
<path d="M294.479 41H75.5215C68.6212 41 63 46.5545 63 53.3881V96.6119C63 103.446 68.6212 109 75.5215 109H170.173C182.391 94.1881 200.972 84.7287 221.807 84.7287C242.642 84.7287 261.256 94.1881 273.475 109H294.479C301.379 109 307 103.446 307 96.6119V53.3881C307 46.5545 301.379 41 294.479 41ZM100.127 94.0198C89.5239 94.0198 80.907 85.503 80.907 75C80.907 64.497 89.5239 56.0139 100.127 56.0139C110.73 56.0139 119.313 64.497 119.313 75C119.313 85.503 110.73 94.0198 100.127 94.0198Z" fill="#B1BEC6" fill-opacity="0.5"/>
<path d="M295.355 110H273.772L273.468 109.597C260.87 94.4407 242.293 85.7705 222.433 85.7705C202.607 85.7705 183.997 94.4407 171.433 109.597L171.129 110H75.6453C68.1471 110 62 103.951 62 96.5578V53.4085C62 46.0154 68.1471 40 75.6453 40H295.355C302.853 40 309 46.0154 309 53.4085V96.5578C309 103.951 302.853 110 295.355 110ZM274.785 107.883H295.355C301.704 107.883 306.838 102.808 306.838 96.5578V53.4085C306.838 47.1916 301.704 42.1171 295.355 42.1171H75.6453C69.3293 42.1171 64.1616 47.1916 64.1616 53.4085V96.5578C64.1616 102.808 69.3293 107.883 75.6453 107.883H170.115C183.085 92.4916 202.134 83.6534 222.433 83.6534C242.766 83.6534 261.816 92.4916 274.785 107.883Z" fill="#75808E"/>
<path d="M119 74.9832C119 85.4845 110.507 94 100.017 94C89.5259 94 81 85.4845 81 74.9832C81 64.4818 89.5259 56 100.017 56C110.507 56 119 64.4818 119 74.9832Z" fill="#B1BEC6" fill-opacity="0.25"/>
<path d="M100.517 95C89.2207 95 80 86.0327 80 74.9832C80 63.9673 89.2207 55 100.517 55C111.813 55 121 63.9673 121 74.9832C121 86.0327 111.813 95 100.517 95ZM100.517 57.0823C90.4116 57.0823 82.1776 65.1091 82.1776 74.9832C82.1776 84.8573 90.4116 92.8841 100.517 92.8841C110.622 92.8841 118.856 84.8573 118.856 74.9832C118.856 65.1091 110.622 57.0823 100.517 57.0823Z" fill="#75808E"/>
<path d="M272.958 62H132.075C131.47 62 131 61.5556 131 61.0159C131 60.4444 131.47 60 132.075 60H272.958C273.53 60 274 60.4444 274 61.0159C274 61.5556 273.53 62 272.958 62Z" fill="#75808E"/>
<path d="M231.953 74H132.081C131.473 74 131 73.5556 131 72.9841C131 72.4444 131.473 72 132.081 72H231.953C232.527 72 233 72.4444 233 72.9841C233 73.5556 232.527 74 231.953 74Z" fill="#75808E"/>
<path d="M176.91 89H132.09C131.477 89 131 88.5556 131 88.0159C131 87.4444 131.477 87 132.09 87H176.91C177.523 87 178 87.4444 178 88.0159C178 88.5556 177.523 89 176.91 89Z" fill="#75808E"/>
<path d="M269.663 267.461L249.631 230.533L248.046 231.374C243.594 233.697 238.063 232.048 235.703 227.671L230.138 217.438C227.541 217.741 224.911 217.875 222.213 217.875C204.542 217.875 188.455 211.109 176.517 200H95.5454C88.5982 200 83 205.554 83 212.388V255.612C83 262.446 88.5982 268 95.5454 268H270C269.865 267.832 269.764 267.663 269.663 267.461ZM120.164 253.02C109.541 253.02 100.941 244.503 100.941 234C100.941 223.531 109.541 215.014 120.164 215.014C130.787 215.014 139.42 223.531 139.42 234C139.42 244.503 130.787 253.02 120.164 253.02Z" fill="#B1BEC6" fill-opacity="0.5"/>
<path d="M327 212.388V255.612C327 262.479 321.35 268 314.414 268H287.38L289.342 266.956C293.808 264.634 295.5 259.147 293.098 254.77L273 217.842L274.556 217C279.023 214.644 280.714 209.19 278.312 204.78L275.707 200H314.38C321.35 200 327 205.554 327 212.388Z" fill="#B1BEC6" fill-opacity="0.5"/>
<path d="M272 268H95.6244C88.104 268 82 261.985 82 254.558V211.442C82 204.015 88.104 198 95.6244 198H177L177.337 198.302C189.545 209.627 205.53 215.844 222.291 215.844C224.888 215.844 227.518 215.71 230.081 215.408L230.823 215.307L236.725 226.161C237.737 228.043 239.423 229.421 241.48 230.026C243.537 230.631 245.729 230.429 247.618 229.421L250.147 228.11L270.685 265.883C270.786 266.051 270.887 266.219 270.988 266.387L272 268ZM95.6244 200.117C89.2843 200.117 84.1246 205.192 84.1246 211.409V254.558C84.1246 260.808 89.2843 265.883 95.6244 265.883H268.257L249.27 230.933L248.629 231.269C246.235 232.546 243.47 232.815 240.873 232.042C238.242 231.269 236.118 229.522 234.836 227.169L229.609 217.558C227.181 217.827 224.719 217.962 222.291 217.962C205.126 217.962 188.736 211.61 176.157 200.117H95.6244Z" fill="#75808E"/>
<path d="M314.486 268H283.468L289.135 264.976C293.059 262.892 294.534 258.086 292.422 254.222L272 216.416L274.515 215.072C276.393 214.097 277.768 212.417 278.405 210.367C279.008 208.35 278.807 206.2 277.768 204.318L274.381 198H314.486C321.931 198 328 204.015 328 211.442V254.558C328 261.985 321.931 268 314.486 268ZM291.617 265.883H314.486C320.757 265.883 325.887 260.808 325.887 254.558V211.442C325.887 205.192 320.757 200.117 314.486 200.117H277.902L279.646 203.343C280.92 205.696 281.222 208.418 280.417 210.972C279.646 213.559 277.902 215.676 275.521 216.953L274.884 217.289L294.299 253.214C296.68 257.582 295.44 262.926 291.617 265.883Z" fill="#75808E"/>
<path d="M139 233.983C139 244.485 130.474 253 119.983 253C109.493 253 101 244.485 101 233.983C101 223.515 109.493 215 119.983 215C130.474 215 139 223.515 139 233.983Z" fill="#B1BEC6" fill-opacity="0.25"/>
<path d="M120.483 254C109.187 254 100 245.033 100 233.983C100 222.967 109.187 214 120.483 214C131.779 214 141 222.967 141 233.983C141 245.033 131.779 254 120.483 254ZM120.483 216.116C110.378 216.116 102.144 224.143 102.144 234.017C102.144 243.857 110.378 251.918 120.483 251.918C130.622 251.918 138.822 243.857 138.822 234.017C138.822 224.143 130.622 216.116 120.483 216.116Z" fill="#75808E"/>
<path d="M198.914 220H152.086C151.475 220 151 219.556 151 219.016C151 218.444 151.475 218 152.086 218H198.914C199.525 218 200 218.444 200 219.016C200 219.556 199.525 220 198.914 220Z" fill="#75808E"/>
<path d="M216.949 232H152.085C151.475 232 151 231.556 151 231.016C151 230.444 151.475 230 152.085 230H216.949C217.525 230 218 230.444 218 231.016C218 231.556 217.525 232 216.949 232Z" fill="#75808E"/>
<path d="M236.915 247H152.085C151.475 247 151 246.556 151 246.016C151 245.444 151.475 245 152.085 245H236.915C237.525 245 238 245.444 238 246.016C238 246.556 237.525 247 236.915 247Z" fill="#75808E"/>
<path d="M155.353 150.802C155.353 139.659 158.155 129.19 163.084 120H39.5585C32.6041 120 27 125.554 27 132.388V175.612C27 182.446 32.6041 188 39.5585 188H167C159.674 177.396 155.353 164.604 155.353 150.802ZM64.2028 172.986C53.5686 172.986 44.96 164.469 44.96 154C44.96 143.497 53.5686 135.014 64.2028 135.014C74.837 135.014 83.4794 143.497 83.4794 154C83.4794 164.469 74.837 172.986 64.2028 172.986Z" fill="#B1BEC6" fill-opacity="0.5"/>
<path d="M169 189H39.6255C32.1045 189 26 182.982 26 175.585V132.415C26 125.018 32.1045 119 39.6255 119H164.818L163.975 120.547C159.017 129.793 156.386 140.249 156.386 150.806C156.386 163.918 160.366 176.56 167.853 187.353L169 189ZM39.6255 121.085C33.2849 121.085 28.1248 126.161 28.1248 132.415V175.585C28.1248 181.805 33.2849 186.915 39.6255 186.915H164.953C157.938 176.123 154.262 163.683 154.262 150.806C154.262 140.484 156.69 130.263 161.31 121.085H39.6255Z" fill="#75808E"/>
<path d="M83 155C83 165.477 74.4741 174 63.9833 174C53.4925 174 45 165.477 45 155C45 144.489 53.4925 136 63.9833 136C74.4741 136 83 144.489 83 155Z" fill="#B1BEC6" fill-opacity="0.25"/>
<path d="M64.483 174C53.1867 174 44 165.033 44 154.017C44 142.967 53.1867 134 64.483 134C75.7793 134 85 142.967 85 154.017C85 165.033 75.7793 174 64.483 174ZM64.483 136.116C54.3776 136.116 46.1776 144.143 46.1776 154.017C46.1776 163.891 54.3776 171.918 64.483 171.918C74.6224 171.918 82.8224 163.891 82.8224 154.017C82.8224 144.143 74.6224 136.116 64.483 136.116Z" fill="#75808E"/>
<path d="M145.915 141H96.0855C95.4749 141 95 140.581 95 140C95 139.452 95.4749 139 96.0855 139H145.915C146.525 139 147 139.452 147 140C147 140.581 146.525 141 145.915 141Z" fill="#75808E"/>
<path d="M139.926 153H96.0737C95.4697 153 95 152.548 95 152C95 151.452 95.4697 151 96.0737 151H139.926C140.497 151 141 151.452 141 152C141 152.548 140.497 153 139.926 153Z" fill="#75808E"/>
<path d="M139.966 168H96.0674C95.467 168 95 167.556 95 166.984C95 166.444 95.467 166 96.0674 166H139.966C140.533 166 141 166.444 141 166.984C141 167.556 140.533 168 139.966 168Z" fill="#75808E"/>
<path d="M267 151C267 175.839 246.639 196 221.5 196C196.394 196 176 175.839 176 151C176 126.127 196.394 106 221.5 106C246.639 106 267 126.127 267 151Z" fill="#B1BEC6" fill-opacity="0.25"/>
<path d="M221.483 197C195.838 197 175 176.369 175 151C175 125.631 195.838 105 221.483 105C247.128 105 268 125.631 268 151C268 176.369 247.128 197 221.483 197ZM221.483 107.117C197.015 107.117 177.117 126.807 177.117 151C177.117 175.193 197.015 194.883 221.483 194.883C245.952 194.883 265.883 175.193 265.883 151C265.883 126.807 245.952 107.117 221.483 107.117Z" fill="#75808E"/>
<path d="M221.983 85.0337C185.007 85.0337 155 114.554 155 151.017C155 187.446 185.007 217 221.983 217C224.689 217 227.328 216.865 229.933 216.562C247.254 214.54 262.579 206.014 273.235 193.512C283.08 182.02 289 167.192 289 151.017C289 114.554 258.993 85 221.983 85V85.0337ZM221.983 196.073C196.746 196.073 176.245 175.887 176.245 151.017C176.245 126.113 196.746 105.961 221.983 105.961C247.254 105.961 267.721 126.113 267.721 151.017C267.721 175.887 247.254 196.073 221.983 196.073Z" fill="#B1BEC6" fill-opacity="0.5"/>
<path d="M221.983 218C184.493 218 154 187.934 154 151C154 114.066 184.493 84 221.983 84C259.507 84 290 114.066 290 151C290 166.79 284.321 182.11 274.044 194.129C262.854 207.226 247.236 215.542 230.063 217.529C227.392 217.832 224.688 218 221.983 218ZM221.983 86.1211C185.676 86.1211 156.13 115.211 156.13 151C156.13 186.756 185.676 215.879 221.983 215.879C224.586 215.879 227.223 215.711 229.792 215.441C246.425 213.488 261.536 205.442 272.387 192.782C282.36 181.1 287.87 166.285 287.87 151C287.87 115.211 258.324 86.1211 221.983 86.1211Z" fill="#75808E"/>
<path d="M289.181 266.694L281.313 270.914C276.875 273.297 271.36 271.629 268.973 267.17L249 229.832L272.941 217L292.914 254.338C295.301 258.763 293.62 264.311 289.181 266.694Z" fill="#B1BEC6" fill-opacity="0.75"/>
<path d="M277.761 273C276.776 273 275.756 272.865 274.771 272.562C272.155 271.786 269.981 270.066 268.69 267.671L248 229.727L274.092 216L294.782 253.944C297.466 258.868 295.563 264.973 290.569 267.604L282.619 271.82C281.09 272.595 279.426 273 277.761 273ZM250.922 230.604L270.592 266.659C271.612 268.548 273.344 269.931 275.417 270.538C277.489 271.145 279.697 270.943 281.6 269.931L289.55 265.749C293.525 263.657 295.019 258.834 292.879 254.956L273.208 218.867L250.922 230.604Z" fill="#75808E"/>
<path d="M275.189 216.571L273.601 217.412L249.536 230.093L247.947 230.934C243.52 233.288 237.943 231.607 235.577 227.234L230 217.008C233.819 216.571 237.571 215.797 241.187 214.721C250.11 212.131 258.256 207.724 265.185 201.972C268.125 199.55 270.829 196.893 273.263 194L278.907 204.36C281.307 208.767 279.617 214.216 275.189 216.571Z" fill="#75808E"/>
<path d="M246.083 165.319C247.306 166.496 247.306 168.479 246.083 169.655L241.567 174.092C240.344 175.303 238.341 175.303 237.119 174.092L224.724 161.958C223.502 160.748 221.498 160.748 220.276 161.958L207.881 174.059C206.659 175.269 204.656 175.269 203.433 174.059L198.917 169.655C197.694 168.445 197.694 166.496 198.917 165.319L211.311 153.185C212.534 151.975 212.534 150.025 211.311 148.815L198.917 136.681C197.694 135.504 197.694 133.521 198.917 132.311L203.433 127.908C204.656 126.697 206.659 126.697 207.881 127.908L220.276 140.042C221.498 141.252 223.502 141.252 224.724 140.042L237.119 127.908C238.341 126.697 240.344 126.697 241.567 127.908L246.083 132.311C247.306 133.521 247.306 135.471 246.083 136.681L233.689 148.815C232.466 150.025 232.466 151.975 233.689 153.185L246.083 165.319Z" fill="#75808E"/>
<path d="M171.806 276H93.194C91.9789 276 91 276.98 91 278.162V288.838C91 290.02 91.9789 291 93.194 291H171.806C173.021 291 174 290.02 174 288.838V278.162C174 276.98 173.021 276 171.806 276Z" fill="#B1BEC6" fill-opacity="0.25"/>
<path d="M171.732 292H93.2679C91.4824 292 90 290.555 90 288.808V278.192C90 276.445 91.4824 275 93.2679 275H171.732C173.518 275 175 276.411 175 278.192V288.808C175 290.555 173.551 292 171.732 292ZM93.2679 277.083C92.6615 277.083 92.1562 277.587 92.1562 278.192V288.808C92.1562 289.413 92.6278 289.883 93.2679 289.883H171.732C172.338 289.883 172.844 289.413 172.844 288.808V278.192C172.844 277.587 172.372 277.083 171.732 277.083H93.2679Z" fill="#75808E"/>
<path d="M321.797 173H300.203C298.983 173 298 173.946 298 175.162V185.804C298 187.02 298.983 188 300.203 188H321.797C323.017 188 324 187.02 324 185.804V175.162C324 173.946 323.017 173 321.797 173Z" fill="#B1BEC6" fill-opacity="0.25"/>
<path d="M321.761 189H300.272C298.484 189 297 187.558 297 185.781V175.219C297 173.442 298.451 172 300.272 172H321.761C323.549 172 325 173.442 325 175.219V185.781C325 187.558 323.549 189 321.761 189ZM300.272 174.112C299.665 174.112 299.159 174.615 299.159 175.219V185.781C299.159 186.385 299.631 186.888 300.272 186.888H321.761C322.369 186.888 322.875 186.385 322.875 185.781V175.219C322.875 174.615 322.369 174.112 321.761 174.112H300.272Z" fill="#75808E"/>
<path d="M68.8277 197H47.2063C45.9843 197 45 197.98 45 199.162V209.838C45 211.02 45.9843 212 47.2063 212H68.8277C70.0157 212 71 211.02 71 209.838V199.162C71 197.98 70.0157 197 68.8277 197Z" fill="#B1BEC6" fill-opacity="0.25"/>
<path d="M68.7614 213H47.2723C45.4506 213 44 211.555 44 209.808V199.192C44 197.445 45.4506 196 47.2723 196H68.7614C70.5494 196 72 197.411 72 199.192V209.808C72 211.555 70.5494 213 68.7614 213ZM47.2723 198.083C46.6313 198.083 46.159 198.587 46.159 199.192V209.808C46.159 210.413 46.6313 210.883 47.2723 210.883H68.7614C69.3687 210.883 69.8747 210.413 69.8747 209.808V199.192C69.8747 198.587 69.3687 198.083 68.7614 198.083H47.2723Z" fill="#75808E"/>
<path d="M274 194.472H273C273.2 194.303 273.4 194.169 273.6 194L274 194.472Z" fill="#75808E"/>
<path d="M273.6 194C273.4 194.169 273.2 194.303 273 194.472H274L273.6 194Z" fill="#75808E"/>
</svg>
