<svg width="53" height="50" viewBox="0 0 53 50" fill="none" xmlns="http://www.w3.org/2000/svg">
<g id="Icon">
<g id="Clip path group">
<mask id="mask0_225_2111" style="mask-type:luminance" maskUnits="userSpaceOnUse" x="18" y="0" width="35" height="31">
<g id="13141e0228">
<path id="Vector" d="M18 0.5H53V30.5H18V0.5Z" fill="white"/>
</g>
</mask>
<g mask="url(#mask0_225_2111)">
<g id="Group">
<path id="Vector_2" d="M44.2215 6.95899C36.188 0.173027 24.3003 4.67291 24.3003 4.67291L22.2105 1.5L19 10.4932L29.0438 11.9713L26.954 8.79836C36.8315 4.60065 44.9446 12.7793 44.9446 12.7793C52.4214 20.7411 48.7264 28.0395 47.1139 30.3978C47.1139 30.4701 47.1935 30.5423 47.1935 30.4701C49.9268 27.2249 50.8089 22.5082 50.8089 22.5082C52.3347 12.4837 44.2215 6.95899 44.2215 6.95899Z" fill="#111827"/>
</g>
</g>
</g>
<path id="Vector_3" d="M31 39.4289L21.8424 38.0298L23.9077 41.2024C14.112 45.3997 6.06593 37.2218 6.06593 37.2218C-1.34186 29.2608 2.24371 22.0354 3.8357 19.6051C3.91459 19.5328 3.75682 19.454 3.75682 19.5328C1.04613 22.7711 0.171249 27.4939 0.171249 27.4939C-1.26298 37.5897 6.78304 43.0416 6.78304 43.0416C14.7502 49.8991 26.5395 45.3274 26.5395 45.3274L28.5331 48.5L31 41.5702C30.9211 41.0513 30.8422 40.5389 30.8422 40.02C30.9211 39.8755 30.9211 39.6522 31 39.4289Z" fill="#111827"/>
<path id="Vector_4" d="M9.3273 33.5H33.7455C35.5433 31.6294 38.1136 30.4379 41 30.3646V16.7648C41 16.0925 40.375 15.5 39.6727 15.5H9.3273C8.62503 15.5 8 16.0925 8 16.7648V32.2285C8 32.9009 8.62503 33.5 9.3273 33.5ZM10.3386 19.98C11.6659 19.98 12.6772 19.0081 12.6772 17.7367H36.3228C36.3228 19.0081 37.3341 19.98 38.6614 19.98V29.02C37.3341 29.02 36.3228 29.9919 36.3228 31.2567H12.6772C12.6772 29.9919 11.6659 29.02 10.3386 29.02V19.98Z" fill="#111827"/>
<path id="Vector_5" d="M24 22.5C23.6617 22.5 23.4962 22.5491 23.2481 22.6473C23.0827 22.75 23 22.8482 23 23C23 23.1473 23.0827 23.25 23.1654 23.2991C23.3308 23.3482 23.5789 23.4509 23.9173 23.5V22.5H24Z" fill="#111827"/>
<path id="Vector_6" d="M26 25.5894C26 25.3211 25.9236 25.1341 25.7708 24.9553C25.6111 24.7683 25.3819 24.6789 25 24.5V26.5C25.3056 26.5 25.5347 26.3211 25.6944 26.2317C25.9236 26.1423 26 25.8659 26 25.5894Z" fill="#111827"/>
<path id="Vector_7" d="M24 28.5C26.8129 28.5 29 26.4582 29 23.9969C29 21.4666 26.7356 19.5 24 19.5C21.1871 19.5 19 21.5418 19 23.9969C19 26.4582 21.2644 28.5 24 28.5ZM22.2841 23.7213C21.9677 23.4395 21.8129 23.0887 21.8129 22.5939C21.8129 22.0992 22.045 21.6795 22.3615 21.3977C22.7482 21.1159 23.2194 20.9092 23.8453 20.9092V20.4833H24.4712V20.9092C25.1744 20.9781 25.8003 21.191 26.4191 21.5418L25.8003 22.3121C25.4065 22.0303 24.9353 21.8925 24.4712 21.8236V23.4395C25.1744 23.5772 25.7159 23.7902 26.0323 24.072C26.3418 24.3539 26.5809 24.7046 26.5809 25.1931C26.5809 25.6879 26.3418 26.1075 26.0323 26.3894C25.6385 26.6712 25.1744 26.8841 24.4712 26.8841V27.5167H23.8453V26.8841C22.9873 26.809 22.2068 26.5271 21.5035 25.9697L22.2068 25.262C22.7482 25.6879 23.2968 25.8946 23.8453 25.9697V24.3539C23.1421 24.1409 22.5935 23.928 22.2841 23.7213Z" fill="#111827"/>
<path id="Vector_8" d="M40 38.4247C40 38.6507 40.071 38.8836 40.2129 39.0342C40.3548 39.1918 40.6452 39.3425 41 39.5V37.5C40.7161 37.5 40.4323 37.6507 40.2129 37.8082C40.071 37.9589 40 38.1918 40 38.4247Z" fill="#111827"/>
<path id="Vector_9" d="M42 40.5V42.5C42.3313 42.5 42.6024 42.3548 42.7349 42.203C42.9337 42.0578 43 41.8333 43 41.5363C43 41.3185 42.9337 41.0941 42.8012 40.9422C42.6687 40.797 42.3976 40.6518 42 40.5Z" fill="#111827"/>
<path id="Vector_10" d="M41.5 34.5C37.9246 34.5 35 37.2008 35 40.4967C35 43.7992 37.9246 46.5 41.5 46.5C45.0754 46.5 48 43.7992 48 40.4967C48 37.2008 45.0754 34.5 41.5 34.5ZM43.9348 43.6521C43.4522 44.0265 42.8015 44.2471 41.9021 44.3273V45.1496H41.0906V44.3273C39.9573 44.2471 38.9775 43.7992 38.0855 43.124L38.9775 42.1479C39.6282 42.676 40.3594 43.0504 41.0906 43.124V40.9513C40.1985 40.724 39.5478 40.4967 39.0652 40.1223C38.6558 39.8214 38.4145 39.3 38.4145 38.6248C38.4145 37.9496 38.6558 37.4214 39.1457 37.0471C39.6282 36.6727 40.279 36.4454 41.0906 36.3719V35.8504H41.9021V36.4454C42.8015 36.5256 43.613 36.7462 44.4246 37.2744L43.613 38.324C43.1232 37.9496 42.4724 37.7223 41.9021 37.6487V39.7479C42.8015 39.9752 43.5326 40.1958 43.9348 40.5769C44.3442 40.9513 44.5855 41.3992 44.5855 42.0744C44.7463 42.7496 44.4246 43.271 43.9348 43.6521Z" fill="#111827"/>
<g id="Clip path group_2">
<mask id="mask1_225_2111" style="mask-type:luminance" maskUnits="userSpaceOnUse" x="32" y="30" width="20" height="20">
<g id="35e16a7825">
<path id="Vector_11" d="M32 30.5H52V49.5H32V30.5Z" fill="white"/>
</g>
</mask>
<g mask="url(#mask1_225_2111)">
<g id="Group_2">
<path id="Vector_12" d="M41.003 31.5C36.029 31.5 32 35.2999 32 39.9967C32 44.6934 36.029 48.5 41.003 48.5C45.977 48.5 49.9989 44.6934 49.9989 39.9967C50.077 35.2999 46.0552 31.5 41.003 31.5ZM41.003 47.2311C36.7395 47.2311 33.343 44.0225 33.343 39.9967C33.343 35.9709 36.8177 32.6958 41.003 32.6958C45.2664 32.6958 48.7412 35.9709 48.7412 39.9967C48.7412 44.0225 45.2664 47.2311 41.003 47.2311Z" fill="#111827"/>
</g>
</g>
</g>
<path id="Vector_13" d="M35 24.4964C35 24.7602 34.9496 25.0169 34.8486 25.2665C34.7477 25.5089 34.6036 25.7228 34.4162 25.9153C34.2288 26.1007 34.0126 26.2433 33.7676 26.3431C33.5225 26.4501 33.2631 26.5 32.9964 26.5C32.7369 26.5 32.4775 26.4501 32.2324 26.3431C31.9874 26.2433 31.7712 26.1007 31.5838 25.9153C31.3964 25.7228 31.2523 25.5089 31.1514 25.2665C31.0505 25.0169 31 24.7602 31 24.4964C31 24.2326 31.0505 23.9759 31.1514 23.7335C31.2523 23.4911 31.3964 23.2701 31.5838 23.0847C31.7712 22.8993 31.9874 22.7496 32.2324 22.6497C32.4775 22.5499 32.7369 22.5 32.9964 22.5C33.2631 22.5 33.5225 22.5499 33.7676 22.6497C34.0126 22.7496 34.2288 22.8993 34.4162 23.0847C34.6036 23.2701 34.7477 23.4911 34.8486 23.7335C34.9496 23.9759 35 24.2326 35 24.4964Z" fill="#111827"/>
<path id="Vector_14" d="M18 24.4964C18 24.7602 17.9495 25.0169 17.8486 25.2665C17.7477 25.5089 17.6036 25.7228 17.4162 25.9153C17.2288 26.1007 17.0126 26.2433 16.7676 26.3431C16.5225 26.4501 16.2703 26.5 16.0036 26.5C15.7369 26.5 15.4775 26.4501 15.2324 26.3431C14.9874 26.2433 14.7712 26.1007 14.5838 25.9153C14.3964 25.7228 14.2523 25.5089 14.1514 25.2665C14.0505 25.0169 14 24.7602 14 24.4964C14 24.2326 14.0505 23.9759 14.1514 23.7335C14.2523 23.4911 14.3964 23.2701 14.5838 23.0847C14.7712 22.8993 14.9874 22.7496 15.2324 22.6497C15.4775 22.5499 15.7369 22.5 16.0036 22.5C16.2703 22.5 16.5225 22.5499 16.7676 22.6497C17.0126 22.7496 17.2288 22.8993 17.4162 23.0847C17.6036 23.2701 17.7477 23.4911 17.8486 23.7335C17.9495 23.9759 18 24.2326 18 24.4964Z" fill="#111827"/>
</g>
</svg>
