<svg width="73" height="50" viewBox="0 0 73 50" fill="none" xmlns="http://www.w3.org/2000/svg">
<g id="Icon">
<g id="Clip path group">
<mask id="mask0_225_2136" style="mask-type:luminance" maskUnits="userSpaceOnUse" x="47" y="3" width="26" height="24">
<g id="6d973206e8">
<path id="Vector" d="M47 3.5H73V26.5H47V3.5Z" fill="white"/>
</g>
</mask>
<g mask="url(#mask0_225_2136)">
<g id="Group">
<path id="Vector_2" d="M62.4836 8.73637C62.6395 8.58415 62.4446 8.19018 62.0547 7.84994C61.6551 7.50969 61.2165 7.36643 61.0606 7.50969L60.7877 7.77831C60.427 8.11855 59.9592 8.61997 59.6376 9.01393L59.2185 8.89753L50.2224 6.62326C49.891 6.54268 49.5499 6.56954 49.2477 6.69489L48.0782 7.1784C47.9807 7.21421 47.9709 7.34852 48.0684 7.38434L56.4797 11.127C56.9378 11.333 57.3764 11.6016 57.7662 11.915L59.9007 13.652L56.7234 16.7321C56.2848 17.1619 55.9046 17.6365 55.5928 18.1468L54.6668 19.5257L50.1054 18.7647C49.7838 18.7109 49.4524 18.8094 49.2185 19.0243L48.8676 19.3735C48.8676 19.3825 48.8676 19.3914 48.8774 19.4004L53.2243 21.4687C53.2828 21.5045 53.3023 21.5672 53.2828 21.6209L52.4544 23.152C52.3569 23.3401 52.5811 23.537 52.7857 23.4296L54.4037 22.5879C54.4622 22.5521 54.5304 22.579 54.5694 22.6238L57.1132 26.456C57.123 26.4649 57.123 26.4649 57.1425 26.4649L57.4933 26.1157C57.7175 25.9009 57.815 25.5875 57.737 25.3009L56.6161 21.1911L58.0684 20.2689C58.6044 19.9466 59.1015 19.5705 59.5304 19.1407L62.7077 16.0606L64.735 17.8961C65.1054 18.2274 65.427 18.6035 65.6902 19.0243L70.3003 26.4381C70.349 26.5276 70.4855 26.5187 70.5245 26.4202L70.9826 25.3278C71.0995 25.0413 71.0995 24.7279 71.0021 24.4414L67.9416 16.3829L67.8052 16.0069C68.2048 15.6935 68.7214 15.2368 69.082 14.8876L69.3451 14.619C69.5108 14.4668 69.3159 14.0818 68.9163 13.7326C68.5264 13.4013 68.0781 13.2491 67.9221 13.3924L67.6687 13.652C67.4933 13.8132 67.3081 14.0012 67.1229 14.2072L66.4407 12.4253L69.7837 9.18406C70.4465 8.54834 70.9533 7.77831 71.2847 6.9456L71.967 5.22647C72.1327 4.77877 71.6453 4.35794 71.1677 4.54597L69.3256 5.27123C68.4387 5.62043 67.6395 6.1308 66.967 6.77548L63.6337 10.0257L61.6551 9.5243C61.8598 9.33627 62.0645 9.14824 62.2302 8.98707L62.4836 8.73637Z" fill="#111827"/>
</g>
</g>
</g>
<g id="Clip path group_2">
<mask id="mask1_225_2136" style="mask-type:luminance" maskUnits="userSpaceOnUse" x="5" y="0" width="52" height="39">
<g id="86e02dd1f6">
<path id="Vector_3" d="M5 0.5H57V38.5H5V0.5Z" fill="white"/>
</g>
</mask>
<g mask="url(#mask1_225_2136)">
<g id="Group_2">
<path id="Vector_4" d="M37.7376 3.83258C42.3899 4.9496 46.4932 7.40519 49.5658 10.747C47.7935 11.5871 45.3373 12.4364 42.3417 13.0549C41.263 9.15918 39.6737 5.96507 37.7376 3.83258ZM32.9987 24.4281V15.8428C35.8786 15.8059 38.5371 15.5474 40.9258 15.1504C41.5712 17.9753 41.9661 21.114 42.0239 24.4281H32.9987ZM32.9987 3.18638C33.3936 3.20484 33.7885 3.2233 34.1738 3.26023C36.8033 4.5988 39.0668 8.36527 40.4828 13.4057C38.2289 13.775 35.7149 14.0334 32.9987 14.0704V3.18638ZM31.13 14.0704C28.4138 14.015 25.9095 13.7657 23.6556 13.3872C25.0715 8.35604 27.335 4.5988 29.9549 3.26023C30.3402 3.2233 30.7351 3.20484 31.13 3.18638V14.0704ZM31.13 24.4281H22.1048C22.1626 21.1048 22.5575 17.9384 23.2125 15.1043C25.7553 15.5289 28.4427 15.7967 31.13 15.8428V24.4281ZM21.7869 13.0364C18.8106 12.4087 16.3545 11.5594 14.5822 10.7193C17.6452 7.39596 21.7484 4.9496 26.3911 3.83258C24.4647 5.95584 22.8754 9.14072 21.7869 13.0364ZM20.2458 24.4281H8.82219C9.01483 19.8308 10.6812 15.5936 13.3878 12.1317C15.5454 13.2211 18.3098 14.1165 21.3631 14.7535C20.6889 17.6799 20.294 20.9571 20.2458 24.4281ZM42.7848 14.7997C46.1079 14.0981 48.8049 13.138 50.7602 12.1594C52.1568 13.9411 53.2645 15.9351 54.0447 18.0768C54.9019 17.0983 55.5473 16.2305 56 15.5012C54.9116 13.101 53.4186 10.9132 51.6367 8.97455L48.4485 7.4975C48.121 7.34057 47.9091 7.01747 47.9187 6.66667C47.9187 6.37126 48.0728 6.11278 48.3136 5.94661C43.854 2.54017 38.2096 0.5 32.0643 0.5C17.6933 0.5 6 11.6332 6 25.3144C6 29.6624 7.19437 33.7612 9.2749 37.3246C9.91062 37.4261 10.7486 37.5 11.8178 37.5C12.0586 37.5 12.3475 37.4908 12.6558 37.4815C10.3922 34.2136 8.99557 30.3548 8.82219 26.2006H20.2458C20.294 29.6717 20.6889 32.9396 21.3631 35.8752C19.7835 36.1984 18.2809 36.6045 16.9035 37.0569C18.9166 36.7522 21.392 36.226 24.272 35.3583C23.9253 35.4137 23.5689 35.4598 23.2125 35.5152C22.5575 32.6904 22.1626 29.524 22.1048 26.2006H31.13V32.9212C31.7465 32.6719 32.3629 32.4134 32.9987 32.1365V26.2006H42.0239C42.0143 26.6529 41.9854 27.1145 41.9661 27.5669C42.6307 27.1699 43.2664 26.7822 43.8829 26.3945C43.8829 26.3298 43.8925 26.2652 43.8925 26.2006H44.1815C45.1158 25.6005 45.9923 25.0097 46.811 24.4281H43.8925C43.8347 20.9663 43.4398 17.7168 42.7848 14.7997Z" fill="#111827"/>
</g>
</g>
</g>
<g id="Clip path group_3">
<mask id="mask2_225_2136" style="mask-type:luminance" maskUnits="userSpaceOnUse" x="13" y="24" width="45" height="26">
<g id="c956dd6555">
<path id="Vector_5" d="M13 24.5H58V49.5H13V24.5Z" fill="white"/>
</g>
</mask>
<g mask="url(#mask2_225_2136)">
<g id="Group_3">
<path id="Vector_6" d="M37.3799 46.1387C39.347 43.9972 40.9617 40.7756 42.0578 36.8371C45.1014 37.4702 47.597 38.3268 49.3977 39.1741C46.2758 42.5447 42.1068 45.0214 37.3799 46.1387ZM57.2269 26.3715L56.9822 26.0363L56.0036 24.5C55.6708 24.798 55.3479 25.0866 54.9956 25.3752H55.2304C55.0347 29.9935 53.3514 34.2579 50.6112 37.7495C48.6246 36.7533 45.8843 35.7942 42.508 35.0866C42.6157 34.5745 42.7233 34.0345 42.8114 33.4944C42.097 33.8855 41.3826 34.2672 40.6388 34.649C40.629 34.6769 40.629 34.7048 40.6192 34.7328C40.5801 34.7235 40.5409 34.7235 40.5018 34.7142C39.621 35.1518 38.7402 35.5894 37.8399 36.0177C37.7518 36.0549 37.6637 36.0922 37.5658 36.1387C38.4662 36.2318 39.3372 36.3529 40.169 36.4926C38.7304 41.5763 36.4306 45.3659 33.7589 46.7253C33.3674 46.7533 32.9662 46.7812 32.5649 46.7998V38.2989C31.9288 38.5503 31.3025 38.7924 30.6664 39.0251V46.7998C30.2651 46.7812 29.8639 46.7533 29.4724 46.7253C27.6717 45.8035 26.0374 43.7831 24.726 40.9991C24.1094 41.176 23.4929 41.3343 22.8763 41.5019C23.7375 43.3454 24.7358 44.919 25.8514 46.1387C22.9253 45.4497 20.2144 44.23 17.8363 42.6099C16.5151 42.852 15.2331 43.0196 14 43.1406C18.6779 47.0885 24.8532 49.5 31.6157 49.5C45.5125 49.5 56.9235 39.3417 58 26.4739L57.2269 26.3715Z" fill="#111827"/>
</g>
</g>
</g>
<path id="Vector_7" d="M35.746 32.5126C35.6518 32.4786 35.5026 32.5126 35.2984 32.6233C35.1806 32.6914 35.1178 32.7169 35 32.785C35.1335 33.0744 35.2042 33.2191 35.3377 33.5C35.4555 33.4404 35.5183 33.4064 35.6361 33.3383C35.746 33.2787 35.8324 33.2191 35.8874 33.1595C35.9502 33.0914 35.9895 33.0233 35.9973 32.9552C36.0052 32.8786 35.9973 32.7935 35.9502 32.7084C35.9031 32.6063 35.8324 32.5382 35.746 32.5126Z" fill="#111827"/>
<path id="Vector_8" d="M19.8961 38.5938C19.8521 38.5451 19.8007 38.5158 19.7419 38.5061C19.6758 38.4866 19.5729 38.5158 19.4113 38.5646C19.2497 38.623 19.1616 38.6425 19 38.701C19.0588 39.0225 19.0808 39.1784 19.1396 39.5C19.3085 39.4513 19.3893 39.422 19.5583 39.3636C19.6684 39.3344 19.7566 39.2856 19.8227 39.2369C19.8961 39.1882 19.9476 39.1297 19.9769 39.0518C20.0063 38.9836 20.0063 38.8959 19.9843 38.7984C19.9696 38.7107 19.9402 38.6523 19.8961 38.5938Z" fill="#111827"/>
<path id="Vector_9" d="M38.733 31.507C38.6316 31.482 38.4912 31.5237 38.2963 31.6405C38.1793 31.7073 38.117 31.7406 38 31.8074C38.1482 32.0828 38.2183 32.2246 38.3587 32.5C38.4834 32.4249 38.538 32.3915 38.655 32.3248C38.7564 32.2663 38.8421 32.1996 38.8967 32.1412C38.9591 32.0661 38.9903 31.9993 38.9981 31.9326C39.0059 31.8575 38.9903 31.7824 38.9435 31.6906C38.8889 31.5988 38.8187 31.532 38.733 31.507Z" fill="#111827"/>
<path id="Vector_10" d="M47.0017 29.1932C46.905 29.3784 46.7986 29.5358 46.6729 29.6654C46.5568 29.795 46.4214 29.9153 46.2473 30.0357C46.0442 30.1746 45.8508 30.2579 45.638 30.3134C45.4349 30.369 45.2415 30.3782 45.0481 30.3505C44.8547 30.3134 44.6806 30.2486 44.5065 30.1375C44.3324 30.0172 44.1873 29.8691 44.0519 29.6839C43.9165 29.4987 43.8295 29.3136 43.7811 29.1192C43.7328 28.934 43.7231 28.7489 43.7618 28.5637C43.8005 28.3878 43.8778 28.2119 43.9939 28.0545C44.1196 27.8879 44.2744 27.749 44.4775 27.6101C44.6516 27.4991 44.816 27.4157 44.9707 27.3694C45.1351 27.3232 45.2705 27.3046 45.4059 27.3139C45.5317 27.3232 45.638 27.3417 45.7348 27.388C45.8315 27.4343 45.8992 27.4805 45.9379 27.5361C45.9862 27.5916 45.9959 27.6564 45.9862 27.7305C45.9669 27.8046 45.9282 27.8601 45.8605 27.9157C45.8315 27.9342 45.7928 27.9527 45.7348 27.9619C45.6961 27.9619 45.6477 27.9619 45.609 27.9527C45.4736 27.9064 45.3672 27.8694 45.2899 27.8509C45.2125 27.8323 45.1255 27.8323 45.0287 27.8601C44.932 27.8694 44.8256 27.9249 44.7193 27.999C44.6032 28.073 44.5065 28.1656 44.4388 28.2675C44.3808 28.36 44.3421 28.4711 44.3324 28.5822C44.3131 28.7026 44.3324 28.8229 44.3711 28.9433C44.4098 29.0729 44.4775 29.2025 44.5645 29.3321C44.7676 29.6098 44.9901 29.7765 45.2415 29.832C45.4833 29.8876 45.7251 29.832 45.9765 29.6654C46.1023 29.5913 46.199 29.4987 46.286 29.3969C46.3731 29.2951 46.4408 29.184 46.5085 29.0544C46.3924 28.9062 46.3441 28.8322 46.228 28.6841C46.0636 28.7859 45.9862 28.8414 45.8315 28.9525C45.7348 29.0173 45.6477 29.0544 45.58 29.0636C45.5123 29.0636 45.4543 29.0359 45.4059 28.971C45.3672 28.9248 45.3576 28.8692 45.3769 28.8044C45.3866 28.7489 45.4349 28.6933 45.5026 28.647C45.7348 28.4804 45.8508 28.4063 46.0829 28.2489C46.1506 28.2026 46.2183 28.1656 46.2764 28.1378C46.3247 28.1101 46.3924 28.1101 46.4504 28.1378C46.5085 28.1471 46.5762 28.2026 46.6342 28.2767C46.7696 28.4526 46.8373 28.5452 46.9727 28.7211C47.0211 28.7859 47.0501 28.8322 47.0694 28.8692C47.0791 28.9248 47.0791 28.971 47.0694 29.0266C47.0501 29.0729 47.0307 29.1284 47.0017 29.1932ZM44.1583 31.3873C44.11 31.4244 44.0616 31.4429 44.0132 31.4521C43.9746 31.4614 43.9165 31.4614 43.8682 31.4614C43.8101 31.4521 43.7618 31.4429 43.7134 31.4244C43.6554 31.4058 43.5974 31.3873 43.5393 31.3596C42.7656 31.0541 42.3788 30.8874 41.6147 30.5634C41.9919 31.1281 42.1757 31.4151 42.5529 31.9798C42.6012 32.0724 42.6302 32.1557 42.6206 32.2298C42.5915 32.3039 42.5529 32.3687 42.4755 32.4149C42.3981 32.452 42.3207 32.4705 42.2434 32.452C42.166 32.4335 42.0983 32.3687 42.0403 32.2761C41.5567 31.5355 41.3149 31.1559 40.8217 30.406C40.7733 30.3227 40.7443 30.2579 40.7346 30.2023C40.725 30.1468 40.7346 30.082 40.7636 30.0172C40.7926 29.9524 40.841 29.9061 40.899 29.8691C40.9474 29.8413 40.9958 29.832 41.0344 29.8228C41.0731 29.8135 41.1118 29.8135 41.1602 29.832C41.1989 29.832 41.2472 29.8505 41.2956 29.8783C41.3536 29.8968 41.402 29.9153 41.46 29.9431C42.2434 30.2764 42.6302 30.4338 43.4233 30.7485C43.0364 30.1746 42.8333 29.8968 42.4465 29.3228C42.3884 29.2303 42.3594 29.1469 42.3691 29.0729C42.3788 29.0081 42.4175 28.9433 42.4852 28.897C42.5625 28.86 42.6399 28.8414 42.7076 28.86C42.7946 28.8785 42.8623 28.934 42.9204 29.0266C43.4426 29.7765 43.7038 30.1468 44.226 30.8967C44.3711 31.1096 44.3517 31.267 44.1583 31.3873ZM41.3343 33.0723C41.2472 33.1278 41.1698 33.1371 41.0925 33.1093C41.0054 33.0908 40.9281 33.026 40.87 32.9241C40.3865 32.1557 40.1447 31.7669 39.6611 30.9985C39.6031 30.8874 39.574 30.8041 39.5934 30.73C39.6127 30.6467 39.6611 30.5912 39.7385 30.5449C39.8158 30.4986 39.8932 30.4893 39.9803 30.5078C40.0576 30.5356 40.1253 30.5912 40.193 30.693C40.6766 31.4614 40.9281 31.8502 41.4116 32.6186C41.4793 32.7205 41.4987 32.813 41.4793 32.8871C41.4697 32.9704 41.4116 33.0352 41.3343 33.0723ZM39.5934 32.4427C39.5063 32.6649 39.2936 32.8686 38.9551 33.0537C38.7616 33.1556 38.6553 33.2111 38.4522 33.313C38.6166 33.5907 38.6939 33.7388 38.868 34.0258C38.9164 34.1184 38.9454 34.211 38.9164 34.2943C38.897 34.3683 38.8487 34.4332 38.7616 34.4794C38.6746 34.5165 38.5972 34.5257 38.5199 34.498C38.4328 34.4794 38.3651 34.4146 38.3071 34.3128C37.8719 33.5444 37.6494 33.1463 37.2045 32.3779C37.1465 32.2668 37.1272 32.1742 37.1465 32.1002C37.1755 32.0261 37.2529 31.9521 37.369 31.8873C37.6494 31.7484 37.7848 31.6743 38.0556 31.5262C38.2587 31.4244 38.4231 31.3503 38.5489 31.3225C38.6746 31.2948 38.8003 31.2855 38.9164 31.304C39.0324 31.3318 39.1388 31.3781 39.2355 31.4429C39.3323 31.5262 39.4193 31.6188 39.4967 31.7391C39.6514 31.9891 39.6804 32.2205 39.5934 32.4427ZM37.0691 33.7666C36.9724 33.9795 36.75 34.1832 36.4115 34.3498C36.2084 34.4517 36.102 34.498 35.8989 34.5905C36.0536 34.8775 36.131 35.0257 36.2761 35.3126C36.3341 35.4237 36.3535 35.5071 36.3244 35.5904C36.3051 35.6644 36.2471 35.7292 36.16 35.7663C36.0827 35.8033 35.9956 35.8126 35.9182 35.7848C35.8409 35.757 35.7732 35.6922 35.7151 35.5904C35.3089 34.8035 35.0962 34.4054 34.69 33.6185C34.6319 33.5074 34.6223 33.4055 34.6416 33.3315C34.6803 33.2574 34.748 33.1926 34.8737 33.1371C35.1542 32.9982 35.2993 32.9334 35.5701 32.7945C35.7828 32.6927 35.9473 32.6371 36.0827 32.6094C36.1987 32.5816 36.3244 32.5816 36.4405 32.6094C36.5566 32.6371 36.6629 32.6834 36.7597 32.7575C36.8564 32.8316 36.9337 32.9334 37.0014 33.0537C37.1465 33.313 37.1659 33.5537 37.0691 33.7666ZM35.1155 36.1551C35.0962 36.2292 35.0381 36.294 34.9511 36.331C34.8641 36.368 34.7867 36.368 34.7093 36.3403C34.6223 36.3125 34.5546 36.2477 34.5062 36.1458C34.1 35.3219 33.8969 34.9238 33.4907 34.1091C33.4424 33.998 33.4327 33.9055 33.452 33.8314C33.481 33.7573 33.5294 33.7018 33.6164 33.6648C33.6938 33.6277 33.7712 33.6277 33.8582 33.6555C33.9356 33.6833 34.0033 33.7481 34.0517 33.8592C34.4579 34.6646 34.6706 35.0719 35.0768 35.8774C35.1252 35.9885 35.1445 36.081 35.1155 36.1551ZM33.8969 36.7013C33.8679 36.7754 33.8099 36.8402 33.7325 36.868C33.6358 36.9142 33.5584 36.9142 33.481 36.8865C33.4037 36.8494 33.336 36.7846 33.2876 36.6735C33.1232 36.3217 33.0362 36.1458 32.8717 35.8033C32.3785 36.007 32.1367 36.1181 31.6435 36.3217C31.7982 36.6735 31.8756 36.8494 32.0303 37.2012C32.0884 37.3031 32.098 37.4049 32.0593 37.479C32.0303 37.553 31.9723 37.6086 31.8853 37.6456C31.7982 37.6734 31.7112 37.6826 31.6435 37.6456C31.5661 37.6086 31.4984 37.5438 31.45 37.4327C31.0825 36.6087 30.9084 36.1921 30.5312 35.3589C30.4926 35.2571 30.4732 35.1645 30.5022 35.0905C30.5313 35.0164 30.5893 34.9608 30.6763 34.9331C30.7634 34.896 30.8407 34.896 30.9181 34.9238C30.9858 34.9516 31.0535 35.0257 31.1019 35.1367C31.2373 35.433 31.305 35.5811 31.4404 35.8866C31.9336 35.683 32.1754 35.5811 32.6686 35.3682C32.5236 35.0719 32.4559 34.9238 32.3108 34.6276C32.2624 34.5165 32.2528 34.4239 32.2818 34.3498C32.3011 34.2758 32.3592 34.2202 32.4365 34.1832C32.5236 34.1462 32.6106 34.1462 32.6783 34.1739C32.7557 34.211 32.8234 34.2758 32.8717 34.3869C33.2683 35.2015 33.4714 35.6089 33.8679 36.4236C33.9163 36.5347 33.9259 36.618 33.8969 36.7013ZM30.7827 37.6086C30.744 37.766 30.657 37.9233 30.5119 38.053C30.3668 38.1918 30.1734 38.3122 29.9316 38.4047C29.6511 38.5066 29.3804 38.5436 29.1579 38.5158C28.9935 38.4881 28.8484 38.4418 28.7227 38.3492C28.5873 38.2566 28.5002 38.1548 28.4519 38.0437C28.4229 37.9696 28.4325 37.9141 28.4616 37.8493C28.4906 37.7845 28.5486 37.7382 28.626 37.7104C28.684 37.6826 28.7517 37.6826 28.8001 37.7104C28.8581 37.7289 28.9258 37.7752 28.9741 37.8308C29.0515 37.8956 29.1192 37.9604 29.1869 37.9974C29.2546 38.0344 29.332 38.0622 29.419 38.0715C29.5158 38.0807 29.6318 38.0622 29.7575 38.0067C29.9316 37.9511 30.0574 37.8585 30.1347 37.7474C30.2121 37.6271 30.2218 37.516 30.1831 37.4049C30.1444 37.3123 30.0864 37.2568 29.9993 37.2197C29.9219 37.192 29.8252 37.1735 29.7285 37.1735C29.6221 37.192 29.4867 37.2012 29.3126 37.229C29.0902 37.2568 28.8968 37.266 28.7324 37.2568C28.5679 37.2568 28.4229 37.2105 28.3068 37.1364C28.1811 37.0624 28.0844 36.942 28.0263 36.7939C27.9683 36.6458 27.9586 36.4976 27.9973 36.3588C28.036 36.2106 28.1327 36.081 28.2681 35.9607C28.4035 35.8403 28.5776 35.7385 28.7904 35.6552C28.9645 35.5904 29.1289 35.5533 29.2643 35.5533C29.4094 35.5441 29.5351 35.5533 29.6511 35.5904C29.7575 35.6274 29.8446 35.6737 29.9123 35.7292C29.9897 35.7848 30.038 35.8496 30.067 35.9237C30.096 35.9885 30.096 36.0533 30.067 36.1273C30.0477 36.1921 29.9993 36.2384 29.9219 36.2662C29.8542 36.294 29.7962 36.294 29.7575 36.2847C29.6995 36.2662 29.6415 36.2292 29.5835 36.1736C29.4867 36.0903 29.39 36.044 29.2933 36.007C29.1966 35.9792 29.0709 35.9885 28.9064 36.0533C28.7614 36.1088 28.655 36.1829 28.5873 36.2847C28.5196 36.368 28.5099 36.4606 28.5389 36.5439C28.5583 36.5995 28.597 36.6458 28.6453 36.6735C28.6937 36.7013 28.7517 36.7198 28.8194 36.7198C28.8871 36.7291 28.9451 36.7291 29.0032 36.7291C29.0709 36.7198 29.1676 36.7106 29.3126 36.6921C29.4867 36.6735 29.6511 36.6458 29.7962 36.6458C29.9413 36.6365 30.0767 36.6458 30.1928 36.6735C30.3088 36.6921 30.4152 36.7383 30.5022 36.8124C30.599 36.8865 30.6763 36.9883 30.7344 37.1179C30.8021 37.2753 30.8117 37.4419 30.7827 37.6086ZM27.2526 39.2287C27.2139 39.2842 27.1559 39.3305 27.0592 39.3583C26.4015 39.5805 26.0727 39.6823 25.4151 39.886C25.2797 39.923 25.1829 39.9323 25.1056 39.8953C25.0282 39.8582 24.9702 39.7749 24.9315 39.6638C24.6607 38.8399 24.5156 38.4325 24.2448 37.6178C24.2158 37.5345 24.2158 37.4697 24.2158 37.4142C24.2255 37.3586 24.2545 37.3031 24.3028 37.266C24.3415 37.229 24.4092 37.192 24.4866 37.1642C25.1056 36.979 25.4151 36.8865 26.0244 36.6828C26.1211 36.6458 26.1888 36.6458 26.2565 36.6735C26.3145 36.6921 26.3532 36.7383 26.3822 36.8031C26.4015 36.8587 26.3919 36.9235 26.3629 36.979C26.3338 37.0253 26.2661 37.0716 26.1791 37.0994C25.6568 37.2753 25.386 37.3586 24.8638 37.5253C24.9605 37.7937 24.9992 37.9233 25.0959 38.1918C25.5891 38.0344 25.8309 37.9604 26.3145 37.7937C26.4015 37.7752 26.4789 37.766 26.5369 37.7845C26.595 37.8122 26.6337 37.8493 26.6627 37.9141C26.682 37.9696 26.6723 38.0344 26.6433 38.09C26.6143 38.1363 26.5563 38.1826 26.4692 38.2103C25.976 38.377 25.7342 38.451 25.2313 38.6084C25.3377 38.9139 25.3957 39.0713 25.5021 39.3768C26.063 39.2009 26.3338 39.1083 26.9045 38.9324C26.9915 38.8954 27.0689 38.8954 27.1269 38.9139C27.1946 38.9417 27.2333 38.9787 27.2623 39.0528C27.2913 39.1176 27.2816 39.1731 27.2526 39.2287ZM24.4673 40.1082C24.4286 40.1545 24.3705 40.2008 24.2738 40.2285C23.6065 40.4229 23.268 40.5063 22.6103 40.6914C22.4749 40.7285 22.3686 40.7285 22.2912 40.6914C22.2235 40.6451 22.1655 40.5711 22.1268 40.4507C21.885 39.6268 21.7689 39.2102 21.5271 38.377C21.5078 38.3029 21.4981 38.2288 21.5175 38.1733C21.5271 38.1178 21.5562 38.0715 21.5948 38.0344C21.6432 37.9974 21.7109 37.9696 21.7979 37.9511C22.4169 37.7752 22.7264 37.6919 23.3454 37.5067C23.4421 37.4882 23.5098 37.479 23.5775 37.5067C23.6355 37.5345 23.6742 37.5808 23.6935 37.6456C23.7129 37.7104 23.7129 37.766 23.6742 37.8215C23.6452 37.8678 23.5775 37.9141 23.4808 37.9326C22.9488 38.09 22.6877 38.164 22.1558 38.3122C22.2332 38.5806 22.2718 38.7195 22.3492 38.988C22.8521 38.8584 23.0939 38.7843 23.5872 38.6455C23.6839 38.6177 23.7612 38.6084 23.8193 38.6362C23.8676 38.664 23.916 38.701 23.9257 38.7658C23.9547 38.8306 23.945 38.8862 23.916 38.9417C23.887 38.988 23.8193 39.0343 23.7226 39.0621C23.2293 39.2009 22.9779 39.275 22.4749 39.4046C22.5717 39.7194 22.62 39.8767 22.7071 40.1822C23.2777 40.0341 23.5678 39.9508 24.1288 39.7934C24.2255 39.7564 24.3028 39.7564 24.3609 39.7842C24.4189 39.8119 24.4673 39.8582 24.4866 39.923C24.5059 39.9878 24.5059 40.0526 24.4673 40.1082ZM21.6432 40.8673C21.6239 40.9136 21.6045 40.9506 21.5562 40.9784C21.5271 41.0154 21.4691 41.034 21.4208 41.0525C21.3434 41.0617 21.2854 41.0617 21.237 41.0525C21.179 41.034 21.1209 41.0062 21.0726 40.9692C21.0339 40.9321 20.9662 40.8766 20.8888 40.8025C20.7438 40.6729 20.6761 40.6081 20.531 40.4878C20.4149 40.3674 20.3085 40.2841 20.2118 40.2285C20.1345 40.173 20.0474 40.1452 19.97 40.136C19.8927 40.1267 19.7959 40.136 19.6896 40.1545C19.6025 40.1822 19.5638 40.1822 19.4768 40.21C19.5638 40.5618 19.6122 40.7377 19.7089 41.0988C19.7282 41.2191 19.7282 41.3024 19.6799 41.3765C19.6412 41.4413 19.5735 41.4876 19.4768 41.5061C19.3801 41.5339 19.293 41.5246 19.2253 41.4783C19.1576 41.4321 19.1093 41.3487 19.0803 41.2376C18.8772 40.3859 18.7708 39.9508 18.558 39.0991C18.529 38.9787 18.5387 38.8862 18.5773 38.8213C18.6257 38.7473 18.7127 38.701 18.8385 38.6732C19.235 38.5806 19.4188 38.5436 19.8153 38.451C19.9507 38.414 20.0668 38.3862 20.1635 38.377C20.2505 38.3677 20.3472 38.3677 20.4343 38.377C20.531 38.3955 20.6277 38.4233 20.7244 38.4788C20.8115 38.5251 20.8888 38.5899 20.9469 38.6732C21.0049 38.7565 21.0629 38.8399 21.0823 38.9417C21.1403 39.1454 21.1209 39.3305 21.0339 39.4879C20.9469 39.636 20.7728 39.7749 20.531 39.886C20.6567 39.9138 20.7824 39.9693 20.9082 40.0434C21.0339 40.1174 21.15 40.21 21.2563 40.3119C21.3724 40.4044 21.4594 40.497 21.5271 40.5711C21.6045 40.6637 21.6432 40.7099 21.6432 40.747C21.6625 40.784 21.6625 40.8303 21.6432 40.8673ZM18.1131 40.4229C18.0744 40.4692 18.0164 40.5063 17.9197 40.5248C17.5135 40.6081 17.3104 40.6451 16.9042 40.7285C16.9816 41.0895 17.0299 41.2839 17.1073 41.645C17.1266 41.7653 17.117 41.8579 17.0686 41.9227C17.0299 41.9875 16.9622 42.0338 16.8655 42.0523C16.7688 42.0708 16.6914 42.0523 16.6237 42.0153C16.5463 41.9597 16.498 41.8857 16.4786 41.7653C16.3046 40.9044 16.2078 40.4692 16.0338 39.6175C16.0241 39.5342 16.0241 39.4601 16.0338 39.4046C16.0434 39.349 16.0821 39.3028 16.1305 39.275C16.1788 39.2379 16.2465 39.2102 16.3336 39.2009C16.9042 39.0806 17.1847 39.0343 17.7456 38.9047C17.8423 38.8954 17.9197 38.8954 17.9777 38.9232C18.0357 38.9602 18.0744 38.9972 18.0841 39.0713C18.1034 39.1361 18.0938 39.1917 18.0551 39.2379C18.0164 39.2935 17.9487 39.3213 17.852 39.349C17.3781 39.4509 17.1363 39.4972 16.6624 39.5897C16.7204 39.8767 16.7591 40.0156 16.8171 40.3026C17.2137 40.2193 17.4168 40.1822 17.823 40.0989C17.91 40.0804 17.9874 40.0804 18.0454 40.1174C18.0938 40.1452 18.1325 40.1915 18.1518 40.2563C18.1615 40.3211 18.1518 40.3767 18.1131 40.4229ZM54.2456 23.7034L53.2495 24.2496C53.0851 24.3421 52.9013 24.3884 52.7175 24.3884C52.35 24.3884 51.9922 24.2033 51.8084 23.8978C51.6053 23.6015 51.5957 23.2312 51.7601 22.9164L52.263 21.9351L51.3829 21.5C47.7851 24.768 42.3884 28.5544 34.9027 32.0817C18.3162 39.9045 6.83622 39.2657 5.80137 37.2753C5.63696 36.979 5.66597 36.5069 5.8594 35.9051C4.88258 33.8129 4.20559 31.6466 3.83807 29.4802C0.491752 33.4333 -0.842909 37.0994 0.540108 39.7564C3.73168 45.8758 20.1054 44.3297 37.1078 36.3125C44.3421 32.8964 50.5221 28.86 55 24.8791L54.2456 23.7034Z" fill="#111827"/>
</g>
</svg>
