<svg width="59" height="50" viewBox="0 0 59 50" fill="none" xmlns="http://www.w3.org/2000/svg">
<g id="Icon">
<path id="Vector" d="M19.6682 38.9519L20.2377 39.2355C22.9028 40.5967 25.9324 41.3198 29 41.3198C33.8595 41.3198 38.4229 39.5687 41.8626 36.3926C45.2946 33.2165 47.1853 28.9912 47.1853 24.4965C47.1853 20.0088 45.2946 15.7835 41.8626 12.6074C38.4229 9.43131 33.8595 7.68021 29 7.68021C24.1405 7.68021 19.5771 9.43131 16.1374 12.6074C12.7054 15.7835 10.8147 20.0088 10.8147 24.4965C10.8147 27.311 11.5816 30.0971 13.0319 32.5501L13.3356 33.0676L11.0121 41.0929L19.6682 38.9519ZM29 43C25.6591 43 22.3485 42.2202 19.4328 40.7455L11.202 42.7873C11.0653 42.8228 10.9134 42.844 10.7692 42.844C10.268 42.844 9.77449 42.6172 9.46317 42.2414C9.15186 41.8586 9.04556 41.3765 9.18223 40.9157L11.3918 33.2874C9.82764 30.6005 9 27.5662 9 24.4965C9 19.5551 11.0805 14.9115 14.8542 11.4164C18.6355 7.92125 23.6545 6 29 6C34.3455 6 39.3645 7.92125 43.1458 11.4164C46.9195 14.9115 49 19.5551 49 24.4965C49 29.4378 46.9195 34.0885 43.1458 37.5765C39.3645 41.0717 34.3455 43 29 43Z" fill="#111827"/>
<g id="Clip path group">
<mask id="mask0_225_2076" style="mask-type:luminance" maskUnits="userSpaceOnUse" x="3" y="1" width="53" height="49">
<g id="55c2a71e1b">
<path id="Vector_2" d="M3 1H56V50H3V1Z" fill="white"/>
</g>
</mask>
<g mask="url(#mask0_225_2076)">
<g id="Group">
<path id="Vector_3" d="M48.3834 7.8858C43.476 3.44357 36.9431 1 30 1C23.0569 1 16.524 3.44357 11.6166 7.8858C6.7014 12.321 4 18.2251 4 24.5035C4 26.6787 4.3251 28.8116 4.95207 30.8526L6.57755 30.4359C5.98928 28.5503 5.67193 26.5587 5.67193 24.5035C5.67193 12.3775 16.5859 2.51134 30 2.51134C43.4141 2.51134 54.3281 12.3775 54.3281 24.5035C54.3281 36.6225 43.4141 46.4887 30 46.4887V48C36.9431 48 43.476 45.5564 48.3834 41.1142C53.2986 36.679 56 30.7749 56 24.5035C56 18.2251 53.2986 12.321 48.3834 7.8858Z" fill="#111827"/>
</g>
</g>
</g>
<g id="Clip path group_2">
<mask id="mask1_225_2076" style="mask-type:luminance" maskUnits="userSpaceOnUse" x="52" y="19" width="7" height="13">
<g id="f709253263">
<path id="Vector_4" d="M52 19H59V32H52V19Z" fill="white"/>
</g>
</mask>
<g mask="url(#mask1_225_2076)">
<g id="Group_2">
<path id="Vector_5" d="M58.5335 22.9641L58.541 22.8084C58.5561 21.3079 57.4073 20.0481 55.853 19.8074L54.3363 19.6234C54.3138 19.5597 54.2762 19.496 54.2387 19.4323C54.1561 19.3332 54.0585 19.2412 53.9459 19.1704C53.7281 19.0289 53.4503 18.9793 53.1875 19.0076H53.18C52.5943 19.0784 52.1739 19.5668 52.2264 20.1188C52.5718 23.686 52.4967 27.2957 52.0087 30.8417C51.9336 31.3937 52.3541 31.9104 52.9397 31.9883H52.9547C53.0524 32.0024 53.1575 32.0024 53.2551 31.9954C53.6831 31.9458 54.0285 31.6627 54.1636 31.2876C54.2988 31.2947 54.4489 31.2947 54.4489 31.2947C54.7943 31.3088 55.4551 31.2946 55.6353 31.2663C55.6428 31.2663 55.6578 31.2663 55.6653 31.2663C57.2421 31.0752 58.4509 29.8083 58.466 28.322L58.4735 28.1734C58.7663 27.8407 58.939 27.4231 58.9465 26.9772L58.9991 24.224C59.0141 23.7639 58.8489 23.318 58.5335 22.9641Z" fill="#111827"/>
</g>
</g>
</g>
<g id="Clip path group_3">
<mask id="mask2_225_2076" style="mask-type:luminance" maskUnits="userSpaceOnUse" x="0" y="18" width="9" height="15">
<g id="cb00b44895">
<path id="Vector_6" d="M0 18H9V33H0V18Z" fill="white"/>
</g>
</mask>
<g mask="url(#mask2_225_2076)">
<g id="Group_3">
<path id="Vector_7" d="M0.465317 21.9641V21.8084C0.442813 20.3079 1.59799 19.0481 3.14323 18.8074L4.65847 18.6234C4.68847 18.5597 4.71848 18.496 4.76348 18.4323C4.8385 18.3332 4.93601 18.2412 5.05603 18.1704C5.27356 18.0289 5.54361 17.9793 5.81365 18.0076H5.82115C6.40624 18.0784 6.82631 18.5668 6.7738 19.1188C6.42874 22.686 6.50375 26.2957 6.99133 29.8417C7.06634 30.3937 6.64628 30.9104 6.05369 30.9883H6.04618C5.94117 31.0024 5.84365 31.0024 5.74614 30.9954C5.31857 30.9458 4.96602 30.6627 4.8385 30.2876C4.70347 30.2947 4.54595 30.2947 4.54595 30.2947C4.2084 30.3088 3.5483 30.2946 3.36827 30.2663C3.35326 30.2663 3.34576 30.2663 3.33826 30.2663C1.75552 30.0752 0.555332 28.8083 0.532828 27.322V27.1734C0.232781 26.8407 0.0677568 26.4231 0.0602542 25.9772L0.000244882 23.224C-0.0072558 22.7639 0.15777 22.318 0.465317 21.9641Z" fill="#111827"/>
</g>
</g>
</g>
<g id="Clip path group_4">
<mask id="mask3_225_2076" style="mask-type:luminance" maskUnits="userSpaceOnUse" x="13" y="0" width="33" height="9">
<g id="52cf51aed1">
<path id="Vector_8" d="M13 0H46V9H13V0Z" fill="white"/>
</g>
</mask>
<g mask="url(#mask3_225_2076)">
<g id="Group_4">
<path id="Vector_9" d="M45.9862 5.30812C45.9249 4.90129 45.6797 4.54612 45.2812 4.30074C40.6986 1.48524 35.2424 0 29.5026 0C23.7628 0 18.3066 1.48524 13.724 4.30074C13.3255 4.54612 13.0726 4.90129 13.0113 5.30812C12.9577 5.71494 13.0956 6.12823 13.4098 6.44465L13.4251 6.45756C13.77 6.80627 14.2681 7 14.8045 7C15.1877 7 15.5478 6.90314 15.8544 6.71587C19.8393 4.27491 24.5598 2.98339 29.5026 2.98339C34.4454 2.98339 39.1659 4.27491 43.1508 6.71587C43.4574 6.90314 43.8175 7 44.2007 7C44.7371 7 45.2352 6.80627 45.5801 6.45756L45.5954 6.44465C45.9019 6.12823 46.0475 5.71494 45.9862 5.30812Z" fill="#111827"/>
</g>
</g>
</g>
<g id="Clip path group_5">
<mask id="mask4_225_2076" style="mask-type:luminance" maskUnits="userSpaceOnUse" x="24" y="45" width="11" height="4">
<g id="e181e84a80">
<path id="Vector_10" d="M24 45H35V49H24V45Z" fill="white"/>
</g>
</mask>
<g mask="url(#mask4_225_2076)">
<g id="Group_5">
<path id="Vector_11" d="M33.1679 49H25.8321C24.82 49 24 48.1129 24 47.0242V46.9839C24 45.8871 24.82 45 25.8321 45H33.1679C34.18 45 35 45.8871 35 46.9839V47.0242C35 48.1129 34.18 49 33.1679 49Z" fill="#111827"/>
</g>
</g>
</g>
<path id="Vector_12" d="M22.2299 27.6073H19.1417L21.7166 24.9043C22.0294 24.5749 22.2941 24.223 22.5027 23.8636C22.7193 23.4967 22.8235 23.1298 22.8235 22.7779C22.8235 22.2238 22.7112 21.7371 22.4786 21.3178C22.246 20.8985 21.9091 20.5691 21.484 20.3444C21.0508 20.1198 20.5535 20 19.992 20C19.4305 20 18.9171 20.1273 18.4599 20.3669C18.0107 20.6065 17.6497 20.9434 17.393 21.3627C17.1283 21.782 17 22.2612 17 22.7779C17 22.9651 17.0722 23.1223 17.2166 23.2646C17.361 23.3993 17.5455 23.4667 17.754 23.4667C17.9626 23.4667 18.1471 23.3993 18.2914 23.2571C18.4358 23.1223 18.508 22.9651 18.508 22.7779C18.508 22.5158 18.5722 22.2687 18.7005 22.0441C18.8289 21.8195 19.0134 21.6398 19.238 21.505C19.4626 21.3702 19.7193 21.3028 19.992 21.3028C20.4251 21.3028 20.746 21.4376 20.9947 21.6997C21.2433 21.9617 21.3717 22.3286 21.3717 22.7779C21.3717 23.1448 21.123 23.5865 20.6337 24.0957L17.2005 27.8095C17.0642 27.9368 17 28.1015 17 28.3037C17 28.4908 17.0722 28.6556 17.2086 28.7903C17.3529 28.9251 17.5374 29 17.754 29H22.2299C22.4465 29 22.631 28.9326 22.7754 28.7903C22.9198 28.6556 23 28.4908 23 28.3037C23 28.109 22.9198 27.9443 22.7754 27.8095C22.631 27.6747 22.4465 27.6073 22.2299 27.6073Z" fill="#111827"/>
<path id="Vector_13" d="M27.3656 22.5308V25.7354H24.8892L27.3656 22.5308ZM29.7892 25.8852C29.6613 25.7879 29.4882 25.7354 29.2925 25.7354H28.7355V20.7113C28.7355 20.5166 28.6753 20.3519 28.5548 20.2097C28.4344 20.0749 28.2688 20 28.0731 20C27.8398 20 27.6516 20.1048 27.4935 20.2995L23.143 25.9151C23.0527 26.0349 23 26.1772 23 26.327C23 26.5141 23.0677 26.6714 23.1957 26.8062C23.3237 26.9484 23.4968 27.0158 23.7075 27.0158H27.3656V28.3037C27.3656 28.4908 27.4333 28.6556 27.5613 28.7903C27.6892 28.9251 27.8548 29 28.0355 29C28.2312 29 28.3968 28.9251 28.5323 28.7903C28.6677 28.6556 28.7355 28.4908 28.7355 28.3037V27.0158H29.2925C29.4806 27.0158 29.6462 26.9559 29.7817 26.8361C29.9247 26.7088 30 26.5516 30 26.3719C30 26.1547 29.9247 25.99 29.7892 25.8852Z" fill="#111827"/>
<path id="Vector_14" d="M35.2835 20C35.1355 20 35.0031 20.0343 34.8863 20.1029C34.7539 20.1646 34.6604 20.2607 34.6059 20.3841L31.0701 28.1014C31.0234 28.1974 31 28.2934 31 28.3758C31 28.5473 31.0701 28.6982 31.2181 28.8216C31.3583 28.9451 31.5296 29 31.7321 29C31.8723 29 32.0047 28.9726 32.1293 28.9108C32.2539 28.8491 32.3474 28.7462 32.4019 28.6227L35.9455 20.8986V20.8918C35.9844 20.8094 36 20.7203 36 20.6311C36 20.4527 35.9299 20.3018 35.7897 20.1852C35.6495 20.0617 35.4782 20 35.2835 20Z" fill="#111827"/>
<path id="Vector_15" d="M41.7877 20.2097C41.6383 20.0674 41.4653 20 41.2608 20H36.7392C36.5347 20 36.3539 20.0674 36.2123 20.2022C36.0708 20.3295 36 20.5017 36 20.6963C36 20.8985 36.0708 21.0632 36.2123 21.198C36.3539 21.3253 36.5269 21.3927 36.7392 21.3927H40.1363L36.8257 27.8844C36.7471 28.0341 36.6999 28.1764 36.6999 28.3037C36.6999 28.4908 36.7785 28.6556 36.9201 28.7903C37.0616 28.9326 37.2346 29 37.4312 29C37.5649 29 37.6907 28.9626 37.8165 28.8952C37.9423 28.8278 38.0367 28.7379 38.1075 28.6181L41.9056 21.0557V21.0483C41.9685 20.9135 42 20.8012 42 20.6963C42 20.5092 41.9292 20.3444 41.7877 20.2097Z" fill="#111827"/>
</g>
</svg>
